<?xml version="1.0" encoding="utf-8"?>
<!-- Generator: Adobe Illustrator 16.0.0, SVG Export Plug-In . SVG Version: 6.00 Build 0)  -->
<!DOCTYPE svg PUBLIC "-//W3C//DTD SVG 1.1//EN" "http://www.w3.org/Graphics/SVG/1.1/DTD/svg11.dtd">
<svg version="1.1" id="Layer_1" xmlns="http://www.w3.org/2000/svg" xmlns:xlink="http://www.w3.org/1999/xlink" x="0px" y="0px"
	 width="32px" height="29.629px" viewBox="0 2.374 32 29.629" enable-background="new 0 2.374 32 29.629" xml:space="preserve">
<g id="bg" display="none">
	<rect x="-188.004" y="-4.102" display="inline" fill="#FFFFFF" width="338.5" height="49.167"/>
</g>
<g id="Layer_1_1_">
	<g>
		<g>
			<path fill="#363636" stroke="#363636" stroke-width="0.2" stroke-miterlimit="10" d="M14.966,23.115
				c0.052,0.053,0.108,0.1,0.169,0.139c0.028,0.02,0.058,0.031,0.086,0.047c0.035,0.02,0.068,0.041,0.105,0.057
				c0.037,0.016,0.075,0.023,0.112,0.034c0.032,0.01,0.063,0.022,0.095,0.028c0.072,0.014,0.145,0.021,0.218,0.021
				c0.072,0,0.146-0.008,0.217-0.021c0.034-0.008,0.064-0.02,0.097-0.028c0.037-0.011,0.074-0.021,0.11-0.034
				c0.038-0.018,0.073-0.038,0.109-0.059c0.026-0.016,0.056-0.026,0.082-0.045c0.061-0.041,0.118-0.086,0.17-0.139l6.651-6.652
				c0.434-0.433,0.434-1.135,0-1.568c-0.433-0.433-1.135-0.433-1.567,0l-4.761,4.761V3.482c0-0.612-0.498-1.108-1.108-1.108
				c-0.612,0-1.109,0.496-1.109,1.108v16.174l-4.76-4.761c-0.433-0.433-1.135-0.433-1.568,0s-0.433,1.135,0,1.568L14.966,23.115z"/>
			<path fill="#363636" stroke="#363636" stroke-width="0.2" stroke-miterlimit="10" d="M26.839,22.332
				c-0.612,0-1.108,0.498-1.108,1.109v5.544H5.771V23.44c0-0.612-0.497-1.108-1.109-1.108c-0.612,0-1.109,0.496-1.109,1.108v6.653
				c0,0.611,0.497,1.109,1.109,1.109h22.176c0.612,0,1.109-0.498,1.109-1.109V23.44C27.948,22.83,27.451,22.332,26.839,22.332z"/>
		</g>
	</g>
</g>
<g id="blue" display="none">
</g>
<g id="grey" display="none">
</g>
</svg>
