<?xml version="1.0" encoding="utf-8"?>
<!-- Generator: Adobe Illustrator 16.0.0, SVG Export Plug-In . SVG Version: 6.00 Build 0)  -->
<!DOCTYPE svg PUBLIC "-//W3C//DTD SVG 1.1//EN" "http://www.w3.org/Graphics/SVG/1.1/DTD/svg11.dtd">
<svg version="1.1" id="Layer_1" xmlns="http://www.w3.org/2000/svg" xmlns:xlink="http://www.w3.org/1999/xlink" x="0px" y="0px"
	 width="16px" height="16px" viewBox="0 0 16 16" enable-background="new 0 0 16 16" xml:space="preserve">
<circle fill="none" stroke="#4C4C4C" stroke-width="1.704" stroke-miterlimit="10" cx="8" cy="8" r="7.1"/>
<path fill="#4C4C4C" stroke="#4C4C4C" stroke-width="0.5" stroke-miterlimit="10" d="M7.608,11.552
	c0.04,0.042,0.087,0.064,0.141,0.064c0.07,0,0.148-0.035,0.234-0.104c0.248-0.194,0.499-0.472,0.752-0.832l0.226,0.152
	c-0.296,0.446-0.644,0.827-1.042,1.139c-0.292,0.228-0.571,0.34-0.841,0.34c-0.178,0-0.323-0.053-0.436-0.157
	c-0.114-0.105-0.17-0.238-0.17-0.4c0-0.161,0.054-0.428,0.162-0.8l0.848-2.917c0.135-0.474,0.202-0.773,0.202-0.897
	c0-0.091-0.034-0.168-0.101-0.23C7.516,6.847,7.426,6.816,7.313,6.816c-0.097,0-0.297,0.024-0.598,0.073v-0.25l2.246-0.372
	l-1.285,4.565c-0.086,0.307-0.129,0.491-0.129,0.55C7.547,11.451,7.567,11.509,7.608,11.552z"/>
<path fill="#4C4C4C" stroke="#4C4C4C" stroke-width="0.5" stroke-miterlimit="10" d="M9.337,4.796C9.21,4.925,9.059,4.99,8.881,4.99
	S8.549,4.925,8.42,4.796c-0.13-0.129-0.194-0.283-0.194-0.46s0.063-0.33,0.19-0.457c0.126-0.126,0.281-0.189,0.465-0.189
	c0.183,0,0.337,0.063,0.461,0.189c0.124,0.127,0.186,0.279,0.186,0.457C9.527,4.513,9.464,4.667,9.337,4.796z"/>
</svg>
