<?xml version="1.0" encoding="utf-8"?>
<!-- Generator: Adobe Illustrator 16.0.0, SVG Export Plug-In . SVG Version: 6.00 Build 0)  -->
<!DOCTYPE svg PUBLIC "-//W3C//DTD SVG 1.1//EN" "http://www.w3.org/Graphics/SVG/1.1/DTD/svg11.dtd">
<svg version="1.1" id="Layer_1" xmlns="http://www.w3.org/2000/svg" xmlns:xlink="http://www.w3.org/1999/xlink" x="0px" y="0px"
	 width="612px" height="566px" viewBox="0 25.5 612 566" enable-background="new 0 25.5 612 566" xml:space="preserve">
<g display="none">
	<rect x="-1034.28" y="-3040.38" display="inline" fill="#66CC99" width="8751.601" height="7943.76"/>
</g>
<path fill="#960707" d="M307.959,494.353c-22.791-2.386-45.938-5.233-69.063-6.948c-7.05-0.684-14.151,0.584-20.531,3.661
	c-40.225,22.394-81.517,42.255-126.094,54.414c-7.64,2.126-15.7,2.24-23.398,0.336c-23.419-6.678-31.393-32.482-18.166-54.164
	c11.511-19.002,22.038-38.612,33.172-57.867c3.914-6.801,2.783-11.05-3.6-16.407c-32.711-27.333-56.277-60.944-64.983-103.198
	c-11.196-54.457,4.521-102.027,40.392-143.257c43.657-50.438,100.959-77.77,164.896-91.562
	c79.946-17.224,158.491-11.406,234.398,20.07c41.166,17.057,77.436,41.396,105.627,76.264
	c57.051,70.508,52.07,159.601-11.909,224.98c-47.235,48.409-106.274,73.856-171.696,85.64
	C354.462,490.502,331.441,491.715,307.959,494.353z M77.098,515.615c3.383-0.188,6.749-0.629,10.066-1.318
	c43.95-12.097,84.446-32.105,123.478-55.419c6.658-4.415,14.813-5.961,22.624-4.291c50.721,10.202,103.013,9.702,153.53-1.465
	c54.06-12.055,102.969-34.197,141.75-75.091c48.805-51.484,54.162-118.079,14.085-175.506
	c-16.648-23.386-38.369-42.704-63.539-56.507c-84.363-47.801-174.02-55.439-266.88-32.586
	c-49.245,12.118-93.467,34.386-128.375,72.141c-32.335,34.951-47.55,76.013-37.065,123.813
	c8.644,39.367,33.485,68.185,64.334,92.399c13.416,10.465,15.236,15.048,7.932,30.242
	C105.916,459.548,91.706,486.607,77.098,515.615z"/>
</svg>
