<?xml version="1.0" encoding="utf-8"?>
<!-- Generator: Adobe Illustrator 16.0.0, SVG Export Plug-In . SVG Version: 6.00 Build 0)  -->
<!DOCTYPE svg PUBLIC "-//W3C//DTD SVG 1.1//EN" "http://www.w3.org/Graphics/SVG/1.1/DTD/svg11.dtd">
<svg version="1.1" id="Layer_1" xmlns="http://www.w3.org/2000/svg" xmlns:xlink="http://www.w3.org/1999/xlink" x="0px" y="0px"
	 width="612px" height="566px" viewBox="0 25.5 612 566" enable-background="new 0 25.5 612 566" xml:space="preserve">
<g display="none">
	<rect x="-1034.28" y="-3040.38" display="inline" fill="#66CC99" width="8751.601" height="7943.76"/>
</g>
<g>
	<path fill="#960707" d="M306.005,31.117c-96.256,0-174.545,78.277-174.545,174.506c0,70.523,69.503,204.208,127.827,303.89
		c21.641,37.011,37.305,61.658,37.305,61.658l9.442,14.712l9.368-14.712c0,0,15.669-24.591,37.31-61.658
		c58.341-99.682,127.828-233.367,127.828-303.89C480.512,109.4,402.177,31.117,306.005,31.117z M333.438,498.254
		c-11.259,19.275-20.883,35.103-27.433,45.83c-6.611-10.728-16.234-26.55-27.494-45.83
		c-46.628-79.71-124.799-223.642-124.799-292.631c0-83.905,68.292-152.304,152.293-152.304c83.933,0,152.23,68.399,152.23,152.304
		C458.208,274.612,380.031,418.544,333.438,498.254z"/>
	<path fill="#960707" d="M306.005,96.494c-60.208,0-109.202,48.961-109.202,109.186c0,60.22,48.966,109.135,109.202,109.135
		c60.169,0,109.129-48.916,109.129-109.135C415.141,145.455,366.174,96.494,306.005,96.494z M306.005,292.505
		c-47.941,0-86.91-38.924-86.91-86.826c0-47.851,38.964-86.882,86.91-86.882c47.873,0,86.882,39.088,86.882,86.882
		C392.887,253.582,353.851,292.505,306.005,292.505z"/>
</g>
</svg>
