<svg height="512pt" viewBox="0 0 512 512.00131" width="512pt" xmlns="http://www.w3.org/2000/svg"><path d="m477.761719 194.96875c-.636719-4.160156-4.21875-7.234375-8.429688-7.234375h-17.066406v-25.601563c-.035156-29.679687-21.828125-54.847656-51.199219-59.128906v-9.28125c10.761719-7.976562 17.097656-20.59375 17.066406-33.988281v-17.066406c0-23.566407-19.101562-42.667969-42.667968-42.667969-23.5625 0-42.664063 19.101562-42.664063 42.667969v17.066406c-.03125 13.394531 6.300781 26.011719 17.066407 33.988281v9.28125c-29.371094 4.28125-51.164063 29.449219-51.203126 59.128906v25.601563h-85.332031v-25.601563c-.035156-29.679687-21.828125-54.847656-51.199219-59.128906v-9.28125c10.761719-7.976562 17.097657-20.59375 17.066407-33.988281v-17.066406c0-23.566407-19.101563-42.667969-42.667969-42.667969-23.5625 0-42.664062 19.101562-42.664062 42.667969v17.066406c-.03125 13.394531 6.300781 26.011719 17.066406 33.988281v9.28125c-29.371094 4.28125-51.164063 29.449219-51.199219 59.128906v25.601563h-17.070313c-4.210937 0-7.789062 3.074219-8.429687 7.234375l-34.132813 221.867188c-.71875 4.660156 2.476563 9.015624 7.136719 9.730468.429688.066406.859375.101563 1.292969.101563h43.402344c-.449219 2.824219-.695313 5.675781-.734375 8.53125v68.269531c0 4.710938 3.820312 8.53125 8.535156 8.53125h136.53125c4.714844 0 8.535156-3.820312 8.535156-8.53125v-68.269531c-.039062-2.855469-.285156-5.710938-.734375-8.53125h95.273438c-.433594 2.824219-.65625 5.675781-.675782 8.53125v68.269531c0 4.710938 3.824219 8.53125 8.535157 8.53125h136.535156c4.710937 0 8.53125-3.820312 8.53125-8.53125v-68.269531c-.015625-2.855469-.242187-5.707031-.671875-8.53125h51.871094c4.714844-.003907 8.53125-3.824219 8.53125-8.539063 0-.433594-.035156-.863281-.097656-1.292968zm-162.03125-32.835938c.03125-23.550781 19.117187-42.636718 42.667969-42.664062 4.714843 0 8.535156-3.824219 8.535156-8.535156v-21.761719c0-3.023437-1.601563-5.820313-4.207032-7.355469-7.933593-4.527344-12.839843-12.949218-12.863281-22.082031v-17.066406c0-14.140625 11.464844-25.601563 25.601563-25.601563 14.136718 0 25.601562 11.460938 25.601562 25.601563v17.066406c-.023437 9.132813-4.929687 17.554687-12.863281 22.082031-2.605469 1.535156-4.207031 4.332032-4.207031 7.355469v21.761719c0 4.710937 3.824218 8.53125 8.535156 8.53125 23.550781.03125 42.640625 19.117187 42.667969 42.667968v25.601563h-119.46875zm-238.929688 0c.027344-23.550781 19.113281-42.636718 42.664063-42.664062 4.714844 0 8.535156-3.824219 8.535156-8.535156v-21.761719c0-3.023437-1.601562-5.820313-4.207031-7.355469-7.933594-4.527344-12.835938-12.949218-12.859375-22.082031v-17.066406c0-14.140625 11.460937-25.601563 25.597656-25.601563 14.140625 0 25.601562 11.460938 25.601562 25.601563v17.066406c-.023437 9.132813-4.929687 17.554687-12.859374 22.082031-2.609376 1.535156-4.207032 4.332032-4.207032 7.355469v21.761719c0 4.710937 3.820313 8.53125 8.53125 8.53125 23.554688.03125 42.640625 19.117187 42.667969 42.667968v25.601563h-119.46875v-25.601563zm110.929688 332.800782h-119.464844v-59.734375c-.007813-4.820313.824219-9.605469 2.464844-14.140625l.0625-.117188c5.984375-17.039062 22.082031-28.429687 40.140625-28.40625 4.710937 0 8.53125-3.820312 8.53125-8.535156v-21.761719c0-3.023437-1.597656-5.820312-4.207032-7.355469-7.929687-4.527343-12.835937-12.949218-12.859374-22.082031v-17.066406c0-14.140625 11.460937-25.601563 25.601562-25.601563 14.136719 0 25.597656 11.460938 25.597656 25.601563v17.066406c-.023437 9.132813-4.925781 17.554688-12.859375 22.082031-2.605469 1.535157-4.207031 4.332032-4.207031 7.355469v21.761719c0 4.714844 3.820312 8.535156 8.535156 8.535156 18.058594-.03125 34.167969 11.359375 40.15625 28.398438l.058594.117187c1.636719 4.539063 2.464844 9.328125 2.449219 14.148438zm247.46875 0h-119.46875v-59.734375c.03125-23.550781 19.117187-42.636719 42.667969-42.664063 4.714843 0 8.535156-3.820312 8.535156-8.535156v-21.761719c0-3.023437-1.601563-5.820312-4.207032-7.355469-7.933593-4.527343-12.839843-12.949218-12.863281-22.082031v-17.066406c0-14.140625 11.464844-25.601563 25.601563-25.601563 14.136718 0 25.601562 11.460938 25.601562 25.601563v17.066406c-.023437 9.132813-4.929687 17.554688-12.863281 22.082031-2.605469 1.535157-4.207031 4.332032-4.207031 7.355469v21.761719c0 4.714844 3.824218 8.535156 8.535156 8.535156 23.550781.027344 42.640625 19.113282 42.667969 42.664063zm11.273437-85.332032c-8.589844-18.058593-25.621094-30.636718-45.40625-33.527343v-9.285157c10.761719-7.976562 17.097656-20.59375 17.066406-33.988281v-17.066406c0-23.566406-19.101562-42.667969-42.667968-42.667969-23.5625 0-42.664063 19.101563-42.664063 42.667969v17.066406c-.03125 13.398438 6.300781 26.011719 17.066407 33.988281v9.285157c-19.785157 2.890625-36.820313 15.46875-45.40625 33.527343h-105.457032c-8.546875-18.089843-25.601562-30.679687-45.40625-33.527343v-9.285157c10.765625-7.976562 17.097656-20.59375 17.066406-33.988281v-17.066406c0-23.566406-19.101562-42.667969-42.664062-42.667969-23.566406 0-42.667969 19.101563-42.667969 42.667969v17.066406c-.03125 13.398438 6.304688 26.011719 17.066407 33.988281v9.285157c-19.800782 2.847656-36.855469 15.4375-45.40625 33.527343h-38.511719l31.507812-204.800781h412.023438l31.503906 204.800781zm0 0"/></svg>