<?xml version="1.0" encoding="utf-8"?>
<!-- Generator: Adobe Illustrator 16.0.0, SVG Export Plug-In . SVG Version: 6.00 Build 0)  -->
<!DOCTYPE svg PUBLIC "-//W3C//DTD SVG 1.1//EN" "http://www.w3.org/Graphics/SVG/1.1/DTD/svg11.dtd">
<svg version="1.1" id="Layer_1" xmlns="http://www.w3.org/2000/svg" xmlns:xlink="http://www.w3.org/1999/xlink" x="0px" y="0px"
	 width="612px" height="566px" viewBox="0 25.5 612 566" enable-background="new 0 25.5 612 566" xml:space="preserve">
<g display="none">
	<rect x="-1034.28" y="-3040.38" display="inline" fill="#66CC99" width="8751.601" height="7943.76"/>
</g>
<g>
	<g>
		<path fill="#960707" d="M504.386,93.739c-17.852,0-33.653,8.758-43.458,22.167c-9.4-20.135-29.78-34.149-53.434-34.149
			c-18.195,0-34.486,8.287-45.318,21.279C351.258,83.231,330.18,69.773,306,69.773c-24.18,0-45.257,13.458-56.175,33.269
			c-10.833-12.993-27.118-21.286-45.319-21.286c-23.647,0-44.033,14.015-53.434,34.149c-9.804-13.409-25.612-22.167-43.458-22.167
			c-29.707,0-53.868,24.162-53.868,53.868s24.162,53.868,53.868,53.868c20.551,0,38.439-11.579,47.516-28.543
			c10.539,16.114,28.721,26.806,49.376,26.806c21.083,0,39.566-11.151,49.994-27.828C266.189,187.7,284.892,198,306,198
			c21.107,0,39.811-10.3,51.5-26.083c10.435,16.677,28.911,27.822,49.994,27.822c20.655,0,38.831-10.692,49.376-26.806
			c9.082,16.971,26.965,28.543,47.516,28.543c29.707,0,53.868-24.167,53.868-53.868C558.254,117.907,534.093,93.739,504.386,93.739z
			 M107.614,182.871c-19.443,0-35.264-15.82-35.264-35.264s15.82-35.257,35.264-35.257c19.443,0,35.263,15.82,35.263,35.257
			C142.877,167.051,127.057,182.871,107.614,182.871z M204.506,181.133c-22.265,0-40.386-18.115-40.386-40.386
			c0-22.265,18.115-40.38,40.386-40.38c17.381,0,32.105,11.096,37.785,26.537c-0.251,2.295-0.398,4.621-0.398,6.983
			c0,5.379,0.74,10.581,1.995,15.581C239.879,167.546,223.771,181.133,204.506,181.133z M306.006,179.395
			c-25.092,0-45.508-20.417-45.508-45.508c0-25.092,20.417-45.502,45.508-45.502s45.509,20.41,45.509,45.502
			C351.509,158.979,331.098,179.395,306.006,179.395z M407.494,181.133c-19.26,0-35.361-13.58-39.376-31.652
			c1.255-5,1.995-10.208,1.995-15.594c0-2.369-0.147-4.7-0.404-7.001c5.686-15.429,20.398-26.518,37.779-26.518
			c22.265,0,40.386,18.115,40.386,40.38C447.874,163.018,429.759,181.133,407.494,181.133z M504.386,182.871
			c-19.443,0-35.264-15.82-35.264-35.264s15.82-35.257,35.264-35.257s35.264,15.82,35.264,35.257
			C539.649,167.051,523.829,182.871,504.386,182.871z"/>
		<path fill="#960707" d="M183.325,541.307h42.369c7.142,0,13.776-2.166,19.339-5.819c2.344,18.96,18.366,33.739,37.95,33.739
			h46.047c19.584,0,35.606-14.773,37.95-33.733c5.563,3.653,12.197,5.82,19.333,5.82h42.369c19.498,0,35.355-15.857,35.355-35.355
			v-0.538c5.66,4.901,12.949,7.974,21.01,7.974h38.685c17.803,0,32.283-14.479,32.283-32.283v-91.371
			c14.498-3.17,25.386-16.108,25.386-31.542v-83.036c0-31.365-25.515-56.879-56.873-56.879h-40.282
			c-9.603,0-18.647,2.411-26.592,6.634c-8.458-4.296-17.986-6.775-28.103-6.775h-44.113c-9.67,0-18.801,2.283-26.971,6.23
			c-8.672-4.045-18.305-6.371-28.488-6.371h-47.944c-10.184,0-19.817,2.325-28.489,6.371c-8.176-3.954-17.301-6.23-26.971-6.23
			h-44.113c-10.116,0-19.651,2.479-28.103,6.775c-7.943-4.223-16.983-6.634-26.591-6.634H87.485
			c-31.371,0-56.885,25.514-56.885,56.879v83.036c0,15.435,10.887,28.373,25.386,31.542v91.365c0,17.804,14.48,32.283,32.283,32.283
			h38.685c8.06,0,15.349-3.072,21.01-7.975v0.539C147.969,525.45,163.826,541.307,183.325,541.307z M484.239,236.886h40.281
			c21.102,0,38.269,17.167,38.269,38.274v83.036c0,6.383-4.522,12.001-10.753,13.366l-14.633,3.194v14.982v91.365
			c0,7.54-6.139,13.679-13.679,13.679h-38.684c-7.54,0-13.679-6.139-13.679-13.679v-77.797
			c12.051-5.643,20.466-17.791,20.466-31.947v-90.937c0-16.347-6.378-31.194-16.714-42.32
			C478.058,237.382,481.081,236.886,484.239,236.886z M385.432,236.745h44.112c24.083,0,43.679,19.597,43.679,43.679v90.931
			c0,7.815-5.538,14.694-13.164,16.365l-14.639,3.194v14.982v100.056c0,9.234-7.516,16.744-16.744,16.744h-42.369
			c-9.235,0-16.75-7.516-16.75-16.744v-84.554c16.162-4.535,28.097-19.291,28.097-36.886v-98.819
			c0-18.825-7.736-35.863-20.172-48.14C380.07,237.07,382.714,236.745,385.432,236.745z M282.028,236.604h47.944
			c27.063,0,49.083,22.02,49.083,49.089v98.826c0,9.247-6.549,17.387-15.575,19.364l-14.64,3.194v14.981v108.74
			c0,10.925-8.893,19.816-19.816,19.816h-46.047c-10.924,0-19.816-8.892-19.816-19.816v-108.74v-14.981l-14.639-3.194
			c-9.027-1.971-15.582-10.117-15.582-19.364v-98.826C232.945,258.625,254.965,236.604,282.028,236.604z M182.456,236.745h44.113
			c2.724,0,5.361,0.325,7.944,0.802c-12.442,12.283-20.171,29.321-20.171,48.14v98.826c0,17.595,11.94,32.351,28.097,36.886v84.547
			c0,9.235-7.515,16.745-16.75,16.745h-42.369c-9.235,0-16.744-7.516-16.744-16.745V405.896v-14.982l-14.639-3.194
			c-7.625-1.665-13.164-8.55-13.164-16.365v-90.931C138.777,256.342,158.367,236.745,182.456,236.745z M140.638,481.104
			c0,7.54-6.139,13.679-13.678,13.679H88.275c-7.54,0-13.678-6.139-13.678-13.679v-91.365v-14.982l-14.633-3.194
			c-6.23-1.359-10.753-6.983-10.753-13.366v-83.036c0-21.102,17.167-38.274,38.269-38.274h40.282c3.158,0,6.181,0.496,9.125,1.218
			c-10.337,11.12-16.714,25.973-16.714,42.32v90.931c0,14.162,8.415,26.311,20.465,31.946V481.104z"/>
	</g>
</g>
</svg>
