<?xml version="1.0" encoding="utf-8"?>
<!-- Generator: Adobe Illustrator 16.0.0, SVG Export Plug-In . SVG Version: 6.00 Build 0)  -->
<!DOCTYPE svg PUBLIC "-//W3C//DTD SVG 1.1//EN" "http://www.w3.org/Graphics/SVG/1.1/DTD/svg11.dtd">
<svg version="1.1" id="Layer_1" xmlns="http://www.w3.org/2000/svg" xmlns:xlink="http://www.w3.org/1999/xlink" x="0px" y="0px"
	 width="197.185px" height="33.993px" viewBox="0 0 197.185 33.993" enable-background="new 0 0 197.185 33.993"
	 xml:space="preserve">
<path d="M11.878,13.047c1.2,0,2.031,0.844,2.031,2.052c0,1.187-0.848,2.026-2.039,2.026h-1.595v2.263H9.483v-6.341H11.878z
	 M10.274,16.422h1.397c0.901,0,1.424-0.483,1.424-1.323c0-0.87-0.505-1.349-1.424-1.349h-1.397V16.422z"/>
<path d="M14.96,17.02c0-1.525,0.835-2.452,2.184-2.452s2.184,0.927,2.184,2.452c0,1.521-0.835,2.452-2.184,2.452
	S14.96,18.541,14.96,17.02z M18.546,17.02c0-1.125-0.505-1.771-1.402-1.771s-1.402,0.646-1.402,1.771
	c0,1.121,0.505,1.771,1.402,1.771S18.546,18.14,18.546,17.02z"/>
<path d="M25.195,19.388h-0.769l-1.06-3.665h-0.07l-1.055,3.665h-0.765l-1.327-4.737h0.765l0.932,3.788h0.07l1.06-3.788h0.725
	l1.06,3.788h0.07l0.932-3.788h0.76L25.195,19.388z"/>
<path d="M31.477,18.162c-0.229,0.813-0.958,1.31-1.996,1.31c-1.314,0-2.135-0.949-2.135-2.448c0-1.49,0.835-2.457,2.135-2.457
	c1.279,0,2.057,0.91,2.057,2.381v0.291h-3.406v0.036c0.04,0.936,0.563,1.529,1.367,1.529c0.61,0,1.023-0.224,1.222-0.642H31.477z
	 M28.132,16.628h2.61c-0.018-0.839-0.519-1.393-1.27-1.393C28.717,15.235,28.189,15.789,28.132,16.628z"/>
<path d="M32.949,14.651h0.721v0.703h0.07c0.141-0.461,0.686-0.787,1.314-0.787c0.123,0,0.281,0.009,0.378,0.022v0.755
	c-0.062-0.017-0.334-0.043-0.483-0.043c-0.721,0-1.244,0.483-1.244,1.151v2.936h-0.756V14.651z"/>
<path d="M40.364,18.162c-0.229,0.813-0.958,1.31-1.995,1.31c-1.314,0-2.136-0.949-2.136-2.448c0-1.49,0.835-2.457,2.136-2.457
	c1.279,0,2.057,0.91,2.057,2.381v0.291H37.02v0.036c0.04,0.936,0.563,1.529,1.367,1.529c0.611,0,1.024-0.224,1.222-0.642H40.364z
	 M37.02,16.628h2.61c-0.018-0.839-0.519-1.393-1.27-1.393C37.604,15.235,37.077,15.789,37.02,16.628z"/>
<path d="M41.6,17.02c0-1.485,0.787-2.452,1.991-2.452c0.659,0,1.217,0.312,1.485,0.831h0.066V12.77h0.756v6.618h-0.721v-0.756h-0.07
	c-0.299,0.527-0.861,0.839-1.516,0.839C42.377,19.472,41.6,18.509,41.6,17.02z M42.382,17.02c0,1.107,0.519,1.771,1.384,1.771
	c0.861,0,1.393-0.677,1.393-1.771c0-1.085-0.536-1.771-1.393-1.771C42.905,15.249,42.382,15.917,42.382,17.02z"/>
<path d="M51.19,18.632h-0.07v0.756h-0.721V12.77h0.756v2.628h0.07c0.259-0.51,0.835-0.831,1.485-0.831
	c1.204,0,1.986,0.962,1.986,2.452c0,1.481-0.787,2.452-1.986,2.452C52.052,19.472,51.489,19.16,51.19,18.632z M51.138,17.02
	c0,1.094,0.536,1.771,1.397,1.771c0.865,0,1.38-0.664,1.38-1.771s-0.515-1.771-1.38-1.771C51.674,15.249,51.138,15.925,51.138,17.02
	z"/>
<path d="M55.999,21.076V20.43c0.092,0.018,0.211,0.022,0.316,0.022c0.435,0,0.672-0.207,0.87-0.778l0.088-0.281l-1.753-4.742h0.817
	l1.301,3.898h0.07l1.296-3.898h0.804l-1.85,5.027c-0.404,1.099-0.782,1.424-1.622,1.424C56.236,21.103,56.104,21.093,55.999,21.076z
	"/>
<path d="M61.097,15.481c0-0.316,0.259-0.571,0.571-0.571c0.316,0,0.571,0.255,0.571,0.571c0,0.312-0.255,0.572-0.571,0.572
	C61.356,16.053,61.097,15.793,61.097,15.481z M61.097,18.861c0-0.317,0.259-0.571,0.571-0.571c0.316,0,0.571,0.254,0.571,0.571
	c0,0.312-0.255,0.571-0.571,0.571C61.356,19.432,61.097,19.173,61.097,18.861z"/>
<g>
	<g>
		<path fill="#58595B" d="M112.644,29.376l0.876-4.644h-0.709l0.133-0.72h0.721l0.056-0.277c0.122-0.753,0.388-1.441,0.875-1.873
			c0.333-0.31,0.81-0.477,1.275-0.477c0.365,0,0.609,0.066,0.731,0.145l-0.199,0.731c-0.144-0.066-0.333-0.1-0.543-0.1
			c-0.731,0-1.086,0.709-1.242,1.596l-0.044,0.255h1.197l-0.144,0.72h-1.187l-0.886,4.644H112.644z"/>
		<path fill="#58595B" d="M120.791,26.129c0,1.652-1.175,3.369-2.971,3.369c-1.341,0-2.094-0.998-2.094-2.206
			c0-1.763,1.23-3.403,2.971-3.403C120.148,23.89,120.791,24.988,120.791,26.129z M116.678,27.259c0,0.876,0.477,1.508,1.264,1.508
			c1.086,0,1.907-1.396,1.907-2.649c0-0.621-0.288-1.496-1.252-1.496C117.443,24.622,116.668,26.029,116.678,27.259z"/>
		<path fill="#58595B" d="M121.434,29.376l0.654-3.458c0.133-0.698,0.222-1.408,0.277-1.906h0.809
			c-0.044,0.376-0.089,0.754-0.144,1.164h0.034c0.343-0.731,0.92-1.286,1.64-1.286c0.078,0,0.189,0.011,0.254,0.022l-0.176,0.909
			c-0.056-0.011-0.145-0.022-0.244-0.022c-0.798,0-1.508,0.964-1.74,2.217l-0.444,2.36H121.434z"/>
		<path fill="#58595B" d="M130.534,29.376c0-0.321,0.056-0.831,0.122-1.385h-0.022c-0.588,1.108-1.32,1.507-2.084,1.507
			c-0.943,0-1.54-0.753-1.54-1.772c0-1.863,1.374-3.836,3.713-3.836c0.509,0,1.075,0.089,1.44,0.211l-0.542,2.793
			c-0.177,0.931-0.255,1.884-0.233,2.482H130.534z M131.133,24.7c-0.134-0.033-0.333-0.078-0.644-0.078
			c-1.385,0-2.516,1.452-2.527,2.937c0,0.599,0.21,1.186,0.92,1.186c0.765,0,1.673-0.998,1.939-2.426L131.133,24.7z"/>
		<path fill="#DB404C" d="M137.152,21.507l-0.709,3.48h0.022c0.477-0.721,1.164-1.098,1.884-1.098c1.175,0,1.619,0.976,1.619,1.929
			c0,1.641-1.187,3.68-3.337,3.68c-0.942,0-1.652-0.387-1.652-1.385c0-0.254,0.044-0.576,0.089-0.832l1.164-5.774H137.152z
			 M135.987,27.304c-0.044,0.177-0.077,0.399-0.066,0.676c0,0.51,0.289,0.798,0.865,0.798c1.386,0,2.228-1.652,2.228-2.838
			c0-0.665-0.288-1.286-1.02-1.286c-0.798,0-1.619,0.82-1.885,2.084L135.987,27.304z"/>
		<path fill="#DB404C" d="M144.501,29.067c-0.399,0.232-1.053,0.421-1.774,0.421c-1.419,0-2.04-0.965-2.04-2.151
			c0-1.618,1.198-3.447,2.927-3.447c1.019,0,1.573,0.609,1.573,1.374c0,1.408-1.585,1.786-3.568,1.752
			c-0.045,0.233-0.012,0.731,0.11,1.02c0.21,0.477,0.643,0.72,1.197,0.72c0.632,0,1.108-0.199,1.441-0.376L144.501,29.067z
			 M143.48,24.611c-0.875,0-1.53,0.853-1.751,1.695c1.441,0.012,2.571-0.177,2.571-1.009
			C144.301,24.854,143.969,24.611,143.48,24.611z"/>
		<path fill="#DB404C" d="M148.059,22.571l-0.277,1.441h1.286l-0.144,0.72h-1.286l-0.499,2.605c-0.055,0.3-0.1,0.577-0.1,0.864
			c0,0.321,0.156,0.51,0.51,0.51c0.155,0,0.31-0.011,0.432-0.033l-0.044,0.721c-0.166,0.066-0.443,0.099-0.709,0.099
			c-0.82,0-1.131-0.498-1.131-1.042c0-0.311,0.033-0.621,0.111-1.009l0.532-2.716h-0.776l0.144-0.72h0.765l0.233-1.208
			L148.059,22.571z"/>
		<path fill="#DB404C" d="M151.528,22.571l-0.277,1.441h1.286l-0.144,0.72h-1.286l-0.499,2.605c-0.055,0.3-0.1,0.577-0.1,0.864
			c0,0.321,0.155,0.51,0.51,0.51c0.155,0,0.31-0.011,0.432-0.033l-0.043,0.721c-0.167,0.066-0.444,0.099-0.71,0.099
			c-0.82,0-1.131-0.498-1.131-1.042c0-0.311,0.033-0.621,0.112-1.009l0.531-2.716h-0.775l0.144-0.72h0.765l0.232-1.208
			L151.528,22.571z"/>
		<path fill="#DB404C" d="M156.416,29.067c-0.398,0.232-1.053,0.421-1.773,0.421c-1.418,0-2.039-0.965-2.039-2.151
			c0-1.618,1.197-3.447,2.926-3.447c1.021,0,1.575,0.609,1.575,1.374c0,1.408-1.585,1.786-3.57,1.752
			c-0.044,0.233-0.01,0.731,0.111,1.02c0.21,0.477,0.644,0.72,1.198,0.72c0.631,0,1.108-0.199,1.441-0.376L156.416,29.067z
			 M155.397,24.611c-0.876,0-1.53,0.853-1.752,1.695c1.441,0.012,2.572-0.177,2.572-1.009
			C156.217,24.854,155.884,24.611,155.397,24.611z"/>
		<path fill="#DB404C" d="M157.569,29.376l0.654-3.458c0.132-0.698,0.221-1.408,0.276-1.906h0.81
			c-0.045,0.376-0.088,0.754-0.144,1.164h0.034c0.343-0.731,0.919-1.286,1.64-1.286c0.077,0,0.188,0.011,0.255,0.022l-0.178,0.909
			c-0.055-0.011-0.144-0.022-0.244-0.022c-0.797,0-1.507,0.964-1.739,2.217l-0.444,2.36H157.569z"/>
		<path fill="#58595B" d="M164.386,24.012l0.188,3.016c0.044,0.665,0.034,1.008,0.022,1.44h0.034
			c0.122-0.343,0.321-0.809,0.587-1.341l1.596-3.115h0.798l0.333,3.06c0.055,0.587,0.099,1.042,0.089,1.396h0.021
			c0.144-0.432,0.3-0.842,0.51-1.352l1.452-3.104h0.932l-2.649,5.364h-0.854l-0.354-2.915c-0.055-0.499-0.077-0.954-0.077-1.419
			h-0.023c-0.221,0.51-0.377,0.92-0.621,1.396l-1.54,2.937h-0.854l-0.499-5.364H164.386z"/>
		<path fill="#58595B" d="M176.003,26.129c0,1.652-1.175,3.369-2.971,3.369c-1.341,0-2.095-0.998-2.095-2.206
			c0-1.763,1.23-3.403,2.971-3.403C175.36,23.89,176.003,24.988,176.003,26.129z M171.891,27.259c0,0.876,0.477,1.508,1.264,1.508
			c1.086,0,1.906-1.396,1.906-2.649c0-0.621-0.288-1.496-1.252-1.496C172.655,24.622,171.879,26.029,171.891,27.259z"/>
		<path fill="#58595B" d="M176.646,29.376l0.654-3.458c0.133-0.698,0.221-1.408,0.277-1.906h0.81
			c-0.044,0.376-0.089,0.754-0.144,1.164h0.033c0.343-0.731,0.919-1.286,1.64-1.286c0.078,0,0.188,0.011,0.255,0.022l-0.177,0.909
			c-0.056-0.011-0.144-0.022-0.244-0.022c-0.797,0-1.507,0.964-1.74,2.217l-0.443,2.36H176.646z"/>
		<path fill="#58595B" d="M180.182,29.376l1.497-7.869h0.92l-1.508,7.869H180.182z"/>
		<path fill="#58595B" d="M188.417,21.507l-1.175,6.174c-0.111,0.554-0.2,1.175-0.233,1.695h-0.842l0.144-1.063h-0.022
			c-0.487,0.765-1.164,1.186-1.928,1.186c-1.042,0-1.608-0.854-1.608-1.95c0-1.906,1.419-3.658,3.314-3.658
			c0.344,0,0.721,0.078,0.954,0.189l0.477-2.572H188.417z M186.876,24.854c-0.188-0.122-0.499-0.221-0.887-0.221
			c-1.286,0-2.283,1.362-2.283,2.793c0,0.643,0.221,1.319,1.008,1.319c0.709,0,1.563-0.81,1.795-2.017L186.876,24.854z"/>
	</g>
</g>
<path fill="#58595B" d="M68.277,19.701V9.6h3.14v10.101H68.277z"/>
<path fill="#58595B" d="M68.277,8.439V5.779h3.14v2.661H68.277z"/>
<path fill="#58595B" d="M76.726,8.422h-3.739V5.779h10.7v2.643h-3.801v11.279h-3.16V8.422z"/>
<path fill="#58595B" d="M86,15.652c0.103,1.302,1.383,1.921,2.851,1.921c1.074,0,1.941-0.145,2.788-0.414l0.414,2.127
	c-1.034,0.413-2.293,0.62-3.657,0.62c-3.429,0-5.392-1.983-5.392-5.144c0-2.562,1.591-5.391,5.103-5.391
	c3.264,0,4.503,2.541,4.503,5.04c0,0.537-0.063,1.013-0.104,1.24H86z M89.697,13.504c0-0.765-0.331-2.046-1.777-2.046
	c-1.321,0-1.859,1.198-1.941,2.046H89.697z"/>
<path fill="#58595B" d="M102.07,19.453c-0.558,0.248-1.61,0.455-2.809,0.455c-3.263,0-5.35-1.983-5.35-5.164
	c0-2.954,2.024-5.371,5.783-5.371c0.827,0,1.735,0.145,2.396,0.393l-0.496,2.333c-0.372-0.165-0.929-0.31-1.755-0.31
	c-1.652,0-2.727,1.177-2.706,2.83c0,1.859,1.24,2.829,2.769,2.829c0.743,0,1.321-0.124,1.796-0.31L102.07,19.453z"/>
<path fill="#58595B" d="M103.805,5.035h3.14v5.764h0.041c0.331-0.435,0.744-0.765,1.239-1.033c0.455-0.248,1.054-0.393,1.632-0.393
	c2.003,0,3.532,1.384,3.532,4.42v5.907h-3.14v-5.556c0-1.322-0.454-2.23-1.631-2.23c-0.826,0-1.343,0.537-1.57,1.094
	c-0.083,0.207-0.103,0.475-0.103,0.703v5.99h-3.14V5.035z"/>
<path fill="#58595B" d="M137.682,19.701V9.6h3.139v10.101H137.682z"/>
<path fill="#58595B" d="M143.32,16.954c0.578,0.351,1.776,0.764,2.707,0.764c0.95,0,1.343-0.33,1.343-0.847
	c0-0.516-0.31-0.764-1.488-1.157c-2.086-0.702-2.892-1.837-2.871-3.036c0-1.879,1.61-3.305,4.11-3.305
	c1.178,0,2.23,0.269,2.851,0.578l-0.558,2.169c-0.455-0.248-1.322-0.578-2.19-0.578c-0.764,0-1.198,0.311-1.198,0.826
	c0,0.475,0.393,0.723,1.631,1.157c1.921,0.662,2.727,1.631,2.748,3.12c0,1.879-1.487,3.263-4.379,3.263
	c-1.323,0-2.5-0.29-3.264-0.703L143.32,16.954z"/>
<path fill="#58595B" d="M152.285,16.954c0.579,0.351,1.776,0.764,2.707,0.764c0.95,0,1.342-0.33,1.342-0.847
	c0-0.516-0.31-0.764-1.487-1.157c-2.086-0.702-2.892-1.837-2.872-3.036c0-1.879,1.611-3.305,4.11-3.305
	c1.178,0,2.231,0.269,2.852,0.578l-0.559,2.169c-0.454-0.248-1.322-0.578-2.189-0.578c-0.764,0-1.198,0.311-1.198,0.826
	c0,0.475,0.393,0.723,1.631,1.157c1.921,0.662,2.727,1.631,2.748,3.12c0,1.879-1.487,3.263-4.379,3.263
	c-1.323,0-2.5-0.29-3.264-0.703L152.285,16.954z"/>
<path fill="#58595B" d="M161.27,19.701V9.6h3.14v10.101H161.27z"/>
<path fill="#58595B" d="M176.906,14.537c0,3.697-2.623,5.391-5.329,5.391c-2.953,0-5.226-1.942-5.226-5.206
	c0-3.264,2.147-5.35,5.391-5.35C174.841,9.373,176.906,11.5,176.906,14.537z M169.594,14.64c0,1.735,0.723,3.036,2.065,3.036
	c1.219,0,2.004-1.219,2.004-3.036c0-1.508-0.578-3.037-2.004-3.037C170.152,11.604,169.594,13.153,169.594,14.64z"/>
<path fill="#58595B" d="M178.848,12.822c0-1.26-0.042-2.334-0.083-3.223h2.727l0.145,1.385h0.063
	c0.413-0.64,1.445-1.611,3.119-1.611c2.065,0,3.614,1.363,3.614,4.338v5.99h-3.14v-5.597c0-1.302-0.454-2.189-1.59-2.189
	c-0.868,0-1.384,0.598-1.59,1.177c-0.083,0.187-0.124,0.496-0.124,0.786v5.824h-3.14V12.822z"/>
<path fill="#58595B" d="M137.682,8.439V5.779h3.139v2.661H137.682z"/>
<path fill="#58595B" d="M161.27,8.439V5.779h3.14v2.661H161.27z"/>
<path fill="#58595B" d="M122.062,5.78h4.614l1.781,9.576l1.767-9.576h4.611v13.921h-2.874V8.475l-2.214,11.226h-2.601l-2.21-11.226
	v11.226h-2.874V5.78z"/>
</svg>
