<?xml version="1.0" encoding="utf-8"?>
<!-- Generator: Adobe Illustrator 16.0.0, SVG Export Plug-In . SVG Version: 6.00 Build 0)  -->
<!DOCTYPE svg PUBLIC "-//W3C//DTD SVG 1.1//EN" "http://www.w3.org/Graphics/SVG/1.1/DTD/svg11.dtd">
<svg version="1.1" id="Layer_1" xmlns="http://www.w3.org/2000/svg" xmlns:xlink="http://www.w3.org/1999/xlink" x="0px" y="0px"
	 width="140.096px" height="44.232px" viewBox="0 0 140.096 44.232" enable-background="new 0 0 140.096 44.232"
	 xml:space="preserve">
<g>
	<g>
		<g>
			<path fill="#FFFFFF" d="M82.391,31.407l0.582-3.077h-0.471l0.087-0.478h0.479l0.035-0.185c0.081-0.5,0.256-0.955,0.581-1.243
				c0.22-0.203,0.537-0.313,0.845-0.313c0.243,0,0.404,0.043,0.484,0.096l-0.133,0.485c-0.095-0.046-0.22-0.068-0.358-0.068
				c-0.484,0-0.722,0.471-0.822,1.059l-0.03,0.17h0.792l-0.095,0.479h-0.786l-0.586,3.077L82.391,31.407L82.391,31.407z"/>
			<path fill="#FFFFFF" d="M87.791,29.255c0,1.096-0.779,2.233-1.969,2.233c-0.89,0-1.39-0.662-1.39-1.461
				c0-1.17,0.815-2.257,1.97-2.257C87.365,27.77,87.791,28.498,87.791,29.255z M85.065,30.003c0,0.582,0.317,1.001,0.837,1.001
				c0.721,0,1.264-0.927,1.264-1.756c0-0.411-0.189-0.99-0.829-0.99C85.572,28.257,85.058,29.188,85.065,30.003z"/>
			<path fill="#FFFFFF" d="M88.217,31.407l0.435-2.291c0.087-0.465,0.146-0.934,0.182-1.264h0.538
				c-0.03,0.249-0.058,0.499-0.095,0.771h0.021c0.229-0.483,0.61-0.854,1.088-0.854c0.051,0,0.125,0.01,0.169,0.015l-0.118,0.604
				c-0.035-0.008-0.097-0.015-0.162-0.015c-0.53,0-0.999,0.64-1.153,1.468l-0.293,1.565L88.217,31.407L88.217,31.407z"/>
			<path fill="#FFFFFF" d="M94.247,31.407c0-0.213,0.037-0.552,0.081-0.919h-0.015c-0.39,0.735-0.873,1-1.381,1
				c-0.624,0-1.022-0.497-1.022-1.176c0-1.232,0.914-2.542,2.463-2.542c0.338,0,0.711,0.059,0.955,0.142l-0.361,1.851
				c-0.119,0.618-0.17,1.251-0.154,1.646L94.247,31.407L94.247,31.407z M94.643,28.308c-0.089-0.023-0.222-0.053-0.427-0.053
				c-0.918,0-1.667,0.959-1.675,1.946c0,0.396,0.142,0.788,0.611,0.788c0.507,0,1.107-0.664,1.284-1.612L94.643,28.308z"/>
			<path fill="#FFFFFF" d="M98.632,26.193l-0.47,2.305h0.015c0.315-0.478,0.771-0.728,1.249-0.728c0.779,0,1.072,0.646,1.072,1.279
				c0,1.088-0.786,2.438-2.21,2.438c-0.626,0-1.096-0.257-1.096-0.917c0-0.169,0.03-0.384,0.06-0.552l0.771-3.826H98.632z
				 M97.862,30.034c-0.029,0.117-0.052,0.264-0.044,0.447c0,0.339,0.19,0.531,0.574,0.531c0.917,0,1.475-1.099,1.475-1.883
				c0-0.44-0.19-0.852-0.675-0.852c-0.529,0-1.072,0.543-1.249,1.381L97.862,30.034z"/>
			<path fill="#FFFFFF" d="M103.504,31.201c-0.267,0.155-0.699,0.279-1.177,0.279c-0.938,0-1.352-0.64-1.352-1.426
				c0-1.071,0.794-2.284,1.94-2.284c0.675,0,1.041,0.403,1.041,0.913c0,0.931-1.05,1.181-2.365,1.158
				c-0.029,0.155-0.007,0.484,0.073,0.678c0.142,0.314,0.426,0.478,0.793,0.478c0.42,0,0.734-0.132,0.954-0.249L103.504,31.201z
				 M102.826,28.249c-0.579,0-1.013,0.564-1.16,1.123c0.954,0.007,1.703-0.117,1.703-0.668
				C103.368,28.41,103.149,28.249,102.826,28.249z"/>
			<path fill="#FFFFFF" d="M105.86,26.897l-0.185,0.954h0.853l-0.095,0.478h-0.854l-0.33,1.727
				c-0.038,0.198-0.065,0.383-0.065,0.572c0,0.214,0.103,0.339,0.338,0.339c0.103,0,0.205-0.009,0.286-0.022l-0.028,0.478
				c-0.112,0.045-0.295,0.067-0.472,0.067c-0.542,0-0.749-0.331-0.749-0.69c0-0.207,0.021-0.411,0.072-0.668l0.354-1.801h-0.515
				l0.095-0.478h0.508l0.153-0.802L105.86,26.897z"/>
			<path fill="#FFFFFF" d="M108.159,26.897l-0.185,0.954h0.852l-0.095,0.478h-0.853l-0.331,1.727
				c-0.035,0.198-0.065,0.383-0.065,0.572c0,0.214,0.103,0.339,0.337,0.339c0.104,0,0.206-0.009,0.287-0.022l-0.029,0.478
				c-0.108,0.045-0.293,0.067-0.471,0.067c-0.543,0-0.749-0.331-0.749-0.69c0-0.207,0.022-0.411,0.073-0.668l0.353-1.801h-0.515
				l0.098-0.478h0.507l0.153-0.802L108.159,26.897z"/>
			<path fill="#FFFFFF" d="M111.397,31.201c-0.264,0.155-0.697,0.279-1.175,0.279c-0.939,0-1.353-0.64-1.353-1.426
				c0-1.071,0.795-2.284,1.94-2.284c0.675,0,1.042,0.403,1.042,0.913c0,0.931-1.051,1.181-2.365,1.158
				c-0.027,0.155-0.007,0.484,0.074,0.678c0.139,0.314,0.426,0.478,0.793,0.478c0.42,0,0.734-0.132,0.955-0.249L111.397,31.201z
				 M110.721,28.249c-0.58,0-1.014,0.564-1.16,1.123c0.956,0.007,1.704-0.117,1.704-0.668
				C111.266,28.41,111.047,28.249,110.721,28.249z"/>
			<path fill="#FFFFFF" d="M112.162,31.407l0.434-2.291c0.09-0.465,0.147-0.934,0.184-1.264h0.538
				c-0.031,0.249-0.061,0.499-0.097,0.771h0.021c0.227-0.483,0.607-0.854,1.088-0.854c0.051,0,0.124,0.01,0.167,0.015l-0.116,0.604
				c-0.037-0.008-0.096-0.015-0.16-0.015c-0.531,0-1,0.64-1.155,1.468l-0.293,1.565L112.162,31.407L112.162,31.407z"/>
			<path fill="#FFFFFF" d="M116.678,27.852l0.126,1.997c0.028,0.44,0.021,0.669,0.014,0.956h0.021
				c0.081-0.229,0.215-0.537,0.39-0.892l1.059-2.063h0.529l0.22,2.026c0.038,0.391,0.067,0.691,0.061,0.927h0.015
				c0.096-0.286,0.198-0.56,0.339-0.897l0.963-2.056h0.616l-1.756,3.555h-0.565l-0.233-1.93c-0.038-0.333-0.054-0.634-0.054-0.941
				h-0.015c-0.146,0.337-0.25,0.608-0.412,0.925l-1.02,1.947h-0.566l-0.331-3.555H116.678z"/>
			<path fill="#FFFFFF" d="M124.378,29.255c0,1.096-0.779,2.233-1.968,2.233c-0.891,0-1.391-0.662-1.391-1.461
				c0-1.17,0.814-2.257,1.97-2.257C123.951,27.77,124.378,28.498,124.378,29.255z M121.651,30.003c0,0.582,0.317,1.001,0.838,1.001
				c0.719,0,1.265-0.927,1.265-1.756c0-0.411-0.19-0.99-0.831-0.99C122.159,28.257,121.644,29.188,121.651,30.003z"/>
			<path fill="#FFFFFF" d="M124.803,31.407l0.433-2.291c0.088-0.465,0.146-0.934,0.184-1.264h0.538
				c-0.032,0.249-0.06,0.499-0.098,0.771h0.023c0.227-0.483,0.609-0.854,1.087-0.854c0.051,0,0.123,0.01,0.168,0.015l-0.117,0.604
				c-0.036-0.008-0.097-0.015-0.161-0.015c-0.53,0-1.001,0.64-1.155,1.468l-0.293,1.565L124.803,31.407L124.803,31.407z"/>
			<path fill="#FFFFFF" d="M127.146,31.407l0.991-5.214h0.609l-0.999,5.214H127.146z"/>
			<path fill="#FFFFFF" d="M132.603,26.193l-0.777,4.092c-0.074,0.366-0.134,0.778-0.155,1.122h-0.558l0.095-0.706h-0.016
				c-0.321,0.508-0.772,0.787-1.277,0.787c-0.689,0-1.065-0.565-1.065-1.293c0-1.264,0.939-2.425,2.196-2.425
				c0.229,0,0.479,0.054,0.633,0.124l0.314-1.701H132.603L132.603,26.193z M131.584,28.41c-0.125-0.08-0.331-0.146-0.589-0.146
				c-0.853,0-1.513,0.903-1.513,1.852c0,0.426,0.146,0.877,0.669,0.877c0.469,0,1.036-0.538,1.188-1.339L131.584,28.41z"/>
		</g>
	</g>
	<path fill="#FFFFFF" d="M52.992,24.995v-6.694h2.081v6.694H52.992z"/>
	<path fill="#FFFFFF" d="M52.992,17.534v-1.763h2.081v1.763H52.992z"/>
	<path fill="#FFFFFF" d="M58.591,17.521h-2.479V15.77h7.091v1.751h-2.518v7.474h-2.095V17.521z"/>
	<path fill="#FFFFFF" d="M64.736,22.313c0.068,0.86,0.917,1.271,1.889,1.271c0.712,0,1.287-0.098,1.849-0.271l0.271,1.409
		c-0.683,0.271-1.518,0.412-2.421,0.412c-2.273,0-3.574-1.317-3.574-3.409c0-1.7,1.055-3.574,3.38-3.574
		c2.165,0,2.986,1.683,2.986,3.339c0,0.354-0.042,0.67-0.069,0.822L64.736,22.313L64.736,22.313z M67.187,20.888
		c0-0.506-0.221-1.354-1.179-1.354c-0.875,0-1.23,0.793-1.286,1.354H67.187z"/>
	<path fill="#FFFFFF" d="M75.385,24.831c-0.369,0.164-1.066,0.305-1.86,0.305c-2.164,0-3.545-1.316-3.545-3.425
		c0-1.958,1.341-3.559,3.833-3.559c0.548,0,1.15,0.095,1.587,0.259l-0.329,1.548c-0.247-0.109-0.616-0.206-1.163-0.206
		c-1.095,0-1.807,0.781-1.793,1.878c0,1.23,0.82,1.873,1.834,1.873c0.492,0,0.875-0.082,1.191-0.206L75.385,24.831z"/>
	<path fill="#FFFFFF" d="M76.534,15.277h2.081v3.819h0.027c0.22-0.287,0.494-0.507,0.82-0.686c0.304-0.165,0.699-0.259,1.083-0.259
		c1.327,0,2.34,0.918,2.34,2.93v3.915h-2.08v-3.682c0-0.876-0.3-1.48-1.081-1.48c-0.549,0-0.891,0.356-1.041,0.727
		c-0.054,0.137-0.068,0.314-0.068,0.466v3.968h-2.081V15.277L76.534,15.277z"/>
	<path fill="#FFFFFF" d="M98.983,24.995v-6.694h2.08v6.694H98.983z"/>
	<path fill="#FFFFFF" d="M102.719,23.175c0.387,0.233,1.179,0.508,1.796,0.508c0.629,0,0.887-0.22,0.887-0.563
		c0-0.341-0.202-0.506-0.983-0.767c-1.382-0.466-1.916-1.219-1.901-2.013c0-1.244,1.067-2.188,2.724-2.188
		c0.778,0,1.48,0.178,1.889,0.384l-0.367,1.438c-0.303-0.165-0.878-0.385-1.451-0.385c-0.509,0-0.794,0.205-0.794,0.549
		c0,0.314,0.259,0.479,1.081,0.766c1.272,0.438,1.807,1.081,1.819,2.065c0,1.245-0.984,2.166-2.9,2.166
		c-0.877,0-1.658-0.193-2.163-0.467L102.719,23.175z"/>
	<path fill="#FFFFFF" d="M108.659,23.175c0.385,0.233,1.181,0.508,1.793,0.508c0.631,0,0.891-0.22,0.891-0.563
		c0-0.341-0.204-0.506-0.983-0.767c-1.384-0.466-1.918-1.219-1.9-2.013c0-1.244,1.064-2.188,2.721-2.188
		c0.781,0,1.479,0.178,1.892,0.384l-0.37,1.438c-0.301-0.165-0.875-0.385-1.451-0.385c-0.506,0-0.795,0.205-0.795,0.549
		c0,0.314,0.261,0.479,1.083,0.766c1.272,0.438,1.806,1.081,1.819,2.065c0,1.245-0.986,2.166-2.902,2.166
		c-0.875,0-1.655-0.193-2.162-0.467L108.659,23.175z"/>
	<path fill="#FFFFFF" d="M114.615,24.995v-6.694h2.08v6.694H114.615z"/>
	<path fill="#FFFFFF" d="M124.975,21.573c0,2.451-1.738,3.573-3.53,3.573c-1.958,0-3.464-1.288-3.464-3.45s1.425-3.544,3.573-3.544
		C123.607,18.152,124.975,19.562,124.975,21.573z M120.131,21.642c0,1.148,0.479,2.013,1.369,2.013c0.808,0,1.326-0.808,1.326-2.013
		c0-1-0.382-2.014-1.326-2.014C120.5,19.63,120.131,20.657,120.131,21.642z"/>
	<path fill="#FFFFFF" d="M126.263,20.438c0-0.835-0.027-1.548-0.058-2.137h1.809l0.098,0.918h0.04
		c0.274-0.425,0.96-1.067,2.068-1.067c1.366,0,2.395,0.903,2.395,2.875v3.969h-2.08v-3.711c0-0.862-0.301-1.451-1.053-1.451
		c-0.575,0-0.918,0.397-1.055,0.782c-0.057,0.123-0.083,0.327-0.083,0.521v3.858h-2.08L126.263,20.438L126.263,20.438z"/>
	<path fill="#FFFFFF" d="M98.983,17.534v-1.763h2.08v1.763H98.983z"/>
	<path fill="#FFFFFF" d="M114.615,17.534v-1.763h2.08v1.763H114.615z"/>
	<path fill="#FFFFFF" d="M88.634,15.77h3.058l1.179,6.346l1.172-6.346h3.056v9.225h-1.905v-7.438l-1.466,7.438h-1.725l-1.464-7.438
		v7.438h-1.903L88.634,15.77L88.634,15.77z"/>
</g>
<text transform="matrix(1 0 0 1 8.3381 25.3738)" fill="#FFFFFF" font-family="'MyriadPro-Regular'" font-size="7.772">Powered by</text>
</svg>
