<?xml version="1.0" encoding="utf-8"?>
<!-- Generator: Adobe Illustrator 16.0.0, SVG Export Plug-In . SVG Version: 6.00 Build 0)  -->
<!DOCTYPE svg PUBLIC "-//W3C//DTD SVG 1.1//EN" "http://www.w3.org/Graphics/SVG/1.1/DTD/svg11.dtd">
<svg version="1.1" id="Layer_1" xmlns="http://www.w3.org/2000/svg" xmlns:xlink="http://www.w3.org/1999/xlink" x="0px" y="0px"
	 width="199.189px" height="44.232px" viewBox="0 0 199.189 44.232" enable-background="new 0 0 199.189 44.232"
	 xml:space="preserve">
<g>
	<g>
		<g>
			<g>
				<path fill="#FFFFFF" d="M94.51,34.665l0.824-4.365h-0.666l0.123-0.677h0.679l0.05-0.261c0.115-0.709,0.364-1.354,0.824-1.763
					c0.312-0.29,0.761-0.447,1.198-0.447c0.344,0,0.573,0.062,0.687,0.136l-0.187,0.688c-0.135-0.064-0.313-0.095-0.51-0.095
					c-0.687,0-1.022,0.668-1.166,1.5l-0.042,0.241h1.124L97.313,30.3h-1.115l-0.832,4.365H94.51z"/>
				<path fill="#FFFFFF" d="M102.17,31.611c0,1.554-1.107,3.168-2.793,3.168c-1.262,0-1.971-0.938-1.971-2.072
					c0-1.658,1.157-3.2,2.794-3.2C101.565,29.507,102.17,30.539,102.17,31.611z M98.302,32.674c0,0.825,0.451,1.418,1.188,1.418
					c1.022,0,1.793-1.313,1.793-2.49c0-0.583-0.271-1.405-1.177-1.405C99.021,30.196,98.292,31.517,98.302,32.674z"/>
				<path fill="#FFFFFF" d="M102.772,34.665l0.615-3.25c0.124-0.658,0.209-1.324,0.259-1.792h0.762
					c-0.042,0.353-0.082,0.708-0.135,1.094h0.03c0.325-0.687,0.866-1.21,1.543-1.21c0.072,0,0.179,0.013,0.239,0.021l-0.167,0.854
					c-0.05-0.009-0.136-0.02-0.229-0.02c-0.752,0-1.417,0.906-1.636,2.083l-0.416,2.22H102.772z"/>
				<path fill="#FFFFFF" d="M111.326,34.665c0-0.302,0.053-0.782,0.116-1.303h-0.021c-0.553,1.042-1.24,1.417-1.959,1.417
					c-0.886,0-1.45-0.704-1.45-1.666c0-1.749,1.295-3.606,3.493-3.606c0.479,0,1.009,0.084,1.354,0.2l-0.512,2.625
					c-0.169,0.877-0.241,1.772-0.22,2.333H111.326z M111.888,30.269c-0.126-0.032-0.313-0.073-0.604-0.073
					c-1.302,0-2.365,1.361-2.375,2.761c0,0.562,0.199,1.118,0.866,1.118c0.719,0,1.571-0.941,1.822-2.287L111.888,30.269z"/>
				<path fill="#FFFFFF" d="M117.546,27.268l-0.667,3.271h0.021c0.448-0.678,1.095-1.032,1.772-1.032c1.104,0,1.52,0.917,1.52,1.816
					c0,1.54-1.114,3.456-3.136,3.456c-0.886,0-1.553-0.364-1.553-1.301c0-0.239,0.042-0.543,0.084-0.782l1.094-5.428H117.546z
					 M116.454,32.718c-0.042,0.166-0.074,0.373-0.064,0.633c0,0.481,0.271,0.754,0.814,0.754c1.302,0,2.092-1.556,2.092-2.67
					c0-0.626-0.27-1.208-0.957-1.208c-0.751,0-1.521,0.771-1.771,1.959L116.454,32.718z"/>
				<path fill="#FFFFFF" d="M124.455,34.372c-0.377,0.221-0.992,0.397-1.667,0.397c-1.333,0-1.919-0.907-1.919-2.022
					c0-1.521,1.127-3.24,2.754-3.24c0.957,0,1.476,0.573,1.476,1.295c0,1.32-1.489,1.674-3.354,1.644
					c-0.042,0.22-0.01,0.688,0.103,0.96c0.2,0.447,0.604,0.677,1.125,0.677c0.597,0,1.043-0.187,1.354-0.354L124.455,34.372z
					 M123.495,30.185c-0.822,0-1.437,0.801-1.647,1.593c1.354,0.01,2.417-0.167,2.417-0.948
					C124.264,30.413,123.953,30.185,123.495,30.185z"/>
				<path fill="#FFFFFF" d="M127.799,28.267l-0.261,1.355h1.208l-0.135,0.677h-1.208l-0.469,2.447
					c-0.054,0.283-0.094,0.544-0.094,0.813c0,0.303,0.145,0.481,0.479,0.481c0.145,0,0.291-0.012,0.405-0.032l-0.04,0.676
					c-0.158,0.064-0.418,0.095-0.669,0.095c-0.768,0-1.062-0.469-1.062-0.978c0-0.294,0.032-0.585,0.104-0.948l0.5-2.554h-0.728
					l0.135-0.677h0.719l0.218-1.136L127.799,28.267z"/>
				<path fill="#FFFFFF" d="M131.058,28.267l-0.26,1.355h1.208l-0.135,0.677h-1.208l-0.47,2.447
					c-0.052,0.283-0.095,0.544-0.095,0.813c0,0.303,0.147,0.481,0.48,0.481c0.146,0,0.291-0.012,0.406-0.032l-0.042,0.676
					c-0.153,0.064-0.415,0.095-0.667,0.095c-0.771,0-1.063-0.469-1.063-0.978c0-0.294,0.034-0.585,0.104-0.948l0.5-2.554h-0.729
					l0.137-0.677h0.72l0.217-1.136L131.058,28.267z"/>
				<path fill="#FFFFFF" d="M135.653,34.372c-0.373,0.221-0.99,0.397-1.667,0.397c-1.333,0-1.917-0.907-1.917-2.022
					c0-1.521,1.127-3.24,2.752-3.24c0.957,0,1.478,0.573,1.478,1.295c0,1.32-1.489,1.674-3.355,1.644
					c-0.039,0.22-0.01,0.688,0.106,0.96c0.197,0.447,0.604,0.677,1.125,0.677c0.595,0,1.043-0.187,1.354-0.354L135.653,34.372z
					 M134.693,30.185c-0.821,0-1.435,0.801-1.644,1.593c1.354,0.01,2.417-0.167,2.417-0.948
					C135.467,30.413,135.155,30.185,134.693,30.185z"/>
				<path fill="#FFFFFF" d="M136.737,34.665l0.614-3.25c0.127-0.658,0.209-1.324,0.26-1.792h0.763
					c-0.044,0.353-0.084,0.708-0.137,1.094h0.031c0.323-0.687,0.863-1.21,1.543-1.21c0.073,0,0.177,0.013,0.238,0.021l-0.165,0.854
					c-0.052-0.009-0.136-0.02-0.229-0.02c-0.753,0-1.419,0.906-1.638,2.083l-0.416,2.22H136.737z"/>
				<path fill="#FFFFFF" d="M143.144,29.623l0.177,2.833c0.042,0.625,0.032,0.949,0.021,1.355h0.032
					c0.114-0.322,0.303-0.761,0.551-1.263l1.502-2.926h0.75l0.312,2.875c0.053,0.553,0.095,0.98,0.084,1.313h0.021
					c0.135-0.406,0.281-0.793,0.48-1.272l1.366-2.916h0.874l-2.49,5.042h-0.803l-0.332-2.737c-0.054-0.473-0.074-0.899-0.074-1.335
					h-0.022c-0.207,0.477-0.354,0.862-0.584,1.311l-1.447,2.762h-0.802l-0.47-5.042H143.144z"/>
				<path fill="#FFFFFF" d="M154.063,31.611c0,1.554-1.105,3.168-2.791,3.168c-1.262,0-1.971-0.938-1.971-2.072
					c0-1.658,1.157-3.2,2.793-3.2C153.459,29.507,154.063,30.539,154.063,31.611z M150.197,32.674c0,0.825,0.45,1.418,1.188,1.418
					c1.02,0,1.794-1.313,1.794-2.49c0-0.583-0.271-1.405-1.179-1.405C150.917,30.196,150.187,31.517,150.197,32.674z"/>
				<path fill="#FFFFFF" d="M154.668,34.665l0.613-3.25c0.126-0.658,0.209-1.324,0.261-1.792h0.762
					c-0.044,0.353-0.084,0.708-0.137,1.094h0.034c0.32-0.687,0.864-1.21,1.54-1.21c0.073,0,0.177,0.013,0.238,0.021l-0.165,0.854
					c-0.052-0.009-0.136-0.02-0.229-0.02c-0.751,0-1.419,0.906-1.638,2.083l-0.416,2.22H154.668z"/>
				<path fill="#FFFFFF" d="M157.99,34.665l1.406-7.396h0.866l-1.417,7.396H157.99z"/>
				<path fill="#FFFFFF" d="M165.731,27.268l-1.103,5.805c-0.106,0.52-0.189,1.104-0.22,1.592h-0.791l0.135-1.002h-0.022
					c-0.456,0.722-1.095,1.116-1.813,1.116c-0.979,0-1.511-0.802-1.511-1.834c0-1.792,1.334-3.438,3.116-3.438
					c0.323,0,0.678,0.075,0.896,0.176l0.448-2.414H165.731z M164.285,30.413c-0.177-0.113-0.47-0.208-0.836-0.208
					c-1.208,0-2.146,1.282-2.146,2.626c0,0.604,0.21,1.244,0.95,1.244c0.665,0,1.469-0.765,1.686-1.899L164.285,30.413z"/>
			</g>
		</g>
		<path fill="#FFFFFF" d="M52.809,25.57v-9.495h2.952v9.495H52.809z"/>
		<path fill="#FFFFFF" d="M52.809,14.987v-2.501h2.952v2.501H52.809z"/>
		<path fill="#FFFFFF" d="M60.751,14.97h-3.516v-2.485h10.058v2.485h-3.572v10.6h-2.97V14.97z"/>
		<path fill="#FFFFFF" d="M69.468,21.765c0.096,1.222,1.3,1.806,2.679,1.806c1.011,0,1.825-0.139,2.621-0.387l0.387,1.999
			c-0.969,0.387-2.153,0.585-3.435,0.585c-3.223,0-5.069-1.869-5.069-4.837c0-2.41,1.495-5.068,4.795-5.068
			c3.069,0,4.234,2.387,4.234,4.736c0,0.504-0.058,0.952-0.097,1.166H69.468z M72.944,19.745c0-0.717-0.312-1.921-1.671-1.921
			c-1.242,0-1.747,1.125-1.826,1.921H72.944z"/>
		<path fill="#FFFFFF" d="M84.573,25.337c-0.525,0.233-1.514,0.432-2.641,0.432c-3.068,0-5.028-1.869-5.028-4.857
			c0-2.777,1.902-5.048,5.437-5.048c0.777,0,1.632,0.134,2.251,0.367l-0.466,2.197c-0.35-0.158-0.874-0.292-1.65-0.292
			c-1.552,0-2.562,1.108-2.543,2.663c0,1.745,1.164,2.657,2.603,2.657c0.698,0,1.241-0.117,1.689-0.292L84.573,25.337z"/>
		<path fill="#FFFFFF" d="M86.202,11.786h2.951v5.417h0.039c0.312-0.407,0.701-0.718,1.164-0.972
			c0.43-0.233,0.992-0.367,1.535-0.367c1.883,0,3.32,1.302,3.32,4.155v5.552H92.26v-5.22c0-1.244-0.424-2.1-1.533-2.1
			c-0.777,0-1.262,0.506-1.476,1.029c-0.076,0.194-0.098,0.447-0.098,0.661v5.629h-2.951V11.786z"/>
		<path fill="#FFFFFF" d="M118.044,25.57v-9.495h2.951v9.495H118.044z"/>
		<path fill="#FFFFFF" d="M123.344,22.987c0.546,0.332,1.669,0.72,2.545,0.72c0.893,0,1.259-0.311,1.259-0.796
			c0-0.484-0.288-0.719-1.396-1.088c-1.959-0.66-2.718-1.727-2.699-2.854c0-1.766,1.517-3.105,3.864-3.105
			c1.105,0,2.1,0.252,2.679,0.545l-0.522,2.038c-0.428-0.233-1.243-0.544-2.059-0.544c-0.719,0-1.125,0.29-1.125,0.777
			c0,0.448,0.367,0.68,1.533,1.086c1.806,0.622,2.562,1.534,2.582,2.931c0,1.767-1.398,3.072-4.115,3.072
			c-1.245,0-2.352-0.275-3.069-0.663L123.344,22.987z"/>
		<path fill="#FFFFFF" d="M131.769,22.987c0.544,0.332,1.673,0.72,2.543,0.72c0.895,0,1.262-0.311,1.262-0.796
			c0-0.484-0.291-0.719-1.396-1.088c-1.962-0.66-2.719-1.727-2.696-2.854c0-1.766,1.511-3.105,3.86-3.105
			c1.108,0,2.098,0.252,2.681,0.545l-0.525,2.038c-0.427-0.233-1.24-0.544-2.058-0.544c-0.717,0-1.127,0.29-1.127,0.777
			c0,0.448,0.369,0.68,1.535,1.086c1.806,0.622,2.562,1.534,2.582,2.931c0,1.767-1.399,3.072-4.117,3.072
			c-1.241,0-2.348-0.275-3.067-0.663L131.769,22.987z"/>
		<path fill="#FFFFFF" d="M140.216,25.57v-9.495h2.951v9.495H140.216z"/>
		<path fill="#FFFFFF" d="M154.912,20.717c0,3.475-2.466,5.067-5.009,5.067c-2.776,0-4.912-1.826-4.912-4.893
			c0-3.067,2.02-5.028,5.068-5.028C152.97,15.863,154.912,17.864,154.912,20.717z M148.04,20.814c0,1.631,0.679,2.855,1.942,2.855
			c1.144,0,1.881-1.146,1.881-2.855c0-1.418-0.542-2.854-1.881-2.854C148.563,17.96,148.04,19.417,148.04,20.814z"/>
		<path fill="#FFFFFF" d="M156.738,19.106c0-1.184-0.038-2.195-0.079-3.03h2.563l0.138,1.303h0.058
			c0.389-0.603,1.361-1.515,2.933-1.515c1.94,0,3.397,1.281,3.397,4.078v5.629h-2.951v-5.262c0-1.223-0.426-2.058-1.494-2.058
			c-0.815,0-1.301,0.563-1.496,1.108c-0.077,0.174-0.117,0.464-0.117,0.738v5.474h-2.95V19.106z"/>
		<path fill="#FFFFFF" d="M118.044,14.987v-2.501h2.951v2.501H118.044z"/>
		<path fill="#FFFFFF" d="M140.216,14.987v-2.501h2.951v2.501H140.216z"/>
		<path fill="#FFFFFF" d="M103.364,12.485h4.336l1.672,9.002l1.663-9.002h4.334V25.57h-2.702V15.017l-2.08,10.553h-2.445
			l-2.077-10.553V25.57h-2.7V12.485z"/>
	</g>
	<text transform="matrix(1 0 0 1 8.3391 25.3738)" fill="#FFFFFF" font-family="'MyriadPro-Regular'" font-size="7.772">Powered by</text>
</g>
</svg>
