<?xml version="1.0" encoding="utf-8"?>
<!-- Generator: Adobe Illustrator 16.0.0, SVG Export Plug-In . SVG Version: 6.00 Build 0)  -->
<!DOCTYPE svg PUBLIC "-//W3C//DTD SVG 1.1//EN" "http://www.w3.org/Graphics/SVG/1.1/DTD/svg11.dtd">
<svg version="1.1" id="Layer_1" xmlns="http://www.w3.org/2000/svg" xmlns:xlink="http://www.w3.org/1999/xlink" x="0px" y="0px"
	 width="612px" height="566px" viewBox="0 25.5 612 566" enable-background="new 0 25.5 612 566" xml:space="preserve">
<g display="none">
	<rect x="-1034.28" y="-3040.38" display="inline" fill="#66CC99" width="8751.601" height="7943.76"/>
</g>
<g>
	<g>
		<g>
			<g>
				<path fill="#960707" stroke="#960707" stroke-width="4" stroke-miterlimit="10" d="M232.685,558.227
					c-0.456,0-0.917-0.059-1.366-0.176L74.914,516.675c-2.343-0.618-3.976-2.741-3.976-5.165V132.544c0-1.72,0.829-3.337,2.227-4.34
					c1.4-1.003,3.193-1.271,4.828-0.721l46.975,15.883c2.266,0.767,3.747,2.944,3.625,5.334c-0.077,1.492-0.116,2.975-0.116,4.406
					c0,5.097,0.466,10.215,1.384,15.214l0.596,2.941c3.34,15.161,49.154,77.377,81.659,118.818
					c3.815-4.885,9.943-12.781,17.134-22.229c1.391-1.825,3.792-2.561,5.965-1.825c2.174,0.737,3.634,2.779,3.627,5.075
					l-0.815,281.801c-0.004,1.654-0.777,3.215-2.089,4.222C234.995,557.848,233.848,558.227,232.685,558.227z M81.622,507.398
					l145.74,38.553l0.75-259.054c-7.074,9.165-11.733,15.061-11.799,15.144c-1.013,1.281-2.557,2.027-4.191,2.027
					c-1.633,0-3.176-0.747-4.19-2.027c-8.457-10.694-82.773-105.149-87.931-128.569l-0.633-3.125
					c-1.054-5.729-1.579-11.498-1.579-17.24c0-0.294,0.001-0.589,0.005-0.887l-36.174-12.229v367.407H81.622z"/>
			</g>
			<g>
				<path fill="#960707" stroke="#960707" stroke-width="4" stroke-miterlimit="10" d="M232.686,558.227
					c-1.147,0-2.278-0.368-3.216-1.075c-1.343-1.013-2.131-2.598-2.126-4.282l0.814-281.799c0.004-1.163,0.387-2.293,1.091-3.22
					c38.698-50.849,62.229-86.088,64.56-96.679l0.596-2.946c0.173-0.953,0.355-2.089,0.54-3.376c0.274-1.938,1.587-3.57,3.423-4.255
					l75.219-28.055c1.637-0.613,3.476-0.382,4.912,0.617c1.438,0.998,2.298,2.639,2.298,4.388v373.964
					c0,2.379-1.573,4.468-3.857,5.131l-142.764,41.376C233.682,558.157,233.182,558.227,232.686,558.227z M238.836,272.893
					l-0.789,272.877l132.062-38.274V145.239l-65.082,24.275c-0.044,0.249-0.089,0.495-0.132,0.738l-0.634,3.129
					C301.498,185.942,279.494,219.39,238.836,272.893z"/>
			</g>
			<g>
				<path fill="#960707" stroke="#960707" stroke-width="4" stroke-miterlimit="10" d="M535.719,558.227
					c-0.445,0-0.895-0.055-1.333-0.169l-160.27-41.375c-2.36-0.608-4.008-2.735-4.008-5.173V137.546
					c0-1.666,0.777-3.236,2.101-4.247c1.325-1.01,3.043-1.343,4.652-0.906l160.27,43.875c2.32,0.637,3.932,2.746,3.932,5.153
					v371.465c0,1.65-0.767,3.211-2.073,4.223C538.045,557.842,536.893,558.227,535.719,558.227z M380.793,507.372l149.585,38.616
					V185.497l-149.585-40.95V507.372z"/>
			</g>
			<g>
				<path fill="#960707" stroke="#960707" stroke-width="4" stroke-miterlimit="10" d="M212.123,304.066
					c-1.633,0-3.178-0.747-4.191-2.027C199.474,291.345,125.158,196.891,120,173.47l-0.633-3.123
					c-1.054-5.73-1.579-11.499-1.579-17.241c0-1.612,0.042-3.279,0.13-4.953c2.596-50.12,43.975-89.379,94.203-89.379
					c52.015,0,94.332,42.316,94.332,94.332c0,4.391-0.313,8.846-0.931,13.238c-0.203,1.438-0.408,2.716-0.628,3.908l-0.633,3.129
					c-2.788,12.672-25.161,46.604-66.511,100.939c-12.185,16.012-21.347,27.603-21.438,27.719
					C215.3,303.319,213.756,304.066,212.123,304.066z M212.123,69.458c-44.539,0-81.232,34.809-83.534,79.244
					c-0.076,1.489-0.115,2.972-0.115,4.403c0,5.096,0.465,10.215,1.384,15.215l0.596,2.94
					c3.339,15.161,49.154,77.376,81.658,118.818c3.815-4.885,9.943-12.781,17.134-22.229c38.697-50.85,62.228-86.088,64.559-96.679
					l0.596-2.947c0.175-0.954,0.357-2.089,0.54-3.374c0.547-3.896,0.826-7.85,0.826-11.744
					C295.77,106.983,258.245,69.458,212.123,69.458z"/>
			</g>
			<g>
				<path fill="#960707" stroke="#960707" stroke-width="4" stroke-miterlimit="10" d="M212.123,190.809
					c-23.019,0-41.747-18.729-41.747-41.747c0-23.018,18.729-41.747,41.747-41.747c23.018,0,41.746,18.729,41.746,41.747
					C253.869,172.081,235.141,190.809,212.123,190.809z M212.123,117.998c-17.127,0-31.063,13.935-31.063,31.063
					c0,17.127,13.935,31.063,31.063,31.063c17.126,0,31.062-13.936,31.062-31.063S229.249,117.998,212.123,117.998z"/>
			</g>
			
				<rect x="172.441" y="319.186" fill="#960707" stroke="#960707" stroke-width="4" stroke-miterlimit="10" width="21.369" height="21.369"/>
			
				<rect x="172.441" y="351.239" fill="#960707" stroke="#960707" stroke-width="4" stroke-miterlimit="10" width="21.369" height="21.37"/>
			
				<rect x="172.441" y="383.294" fill="#960707" stroke="#960707" stroke-width="4" stroke-miterlimit="10" width="21.369" height="21.369"/>
			
				<rect x="172.441" y="415.347" fill="#960707" stroke="#960707" stroke-width="4" stroke-miterlimit="10" width="21.369" height="21.369"/>
			
				<rect x="172.441" y="447.402" fill="#960707" stroke="#960707" stroke-width="4" stroke-miterlimit="10" width="21.369" height="21.369"/>
		</g>
		<g>
			<path fill="#960707" stroke="#960707" stroke-width="4" stroke-miterlimit="10" d="M482.298,538.222
				c-2.951,0-5.344-2.391-5.344-5.343V265.761c0-2.95,2.393-5.342,5.344-5.342c2.95,0,5.343,2.392,5.343,5.342v267.118
				C487.641,535.831,485.248,538.222,482.298,538.222z"/>
		</g>
		<g>
			<path fill="#960707" stroke="#960707" stroke-width="4" stroke-miterlimit="10" d="M482.298,239.051
				c-2.951,0-5.344-2.392-5.344-5.342v-10.685c0-2.951,2.393-5.344,5.344-5.344c2.95,0,5.343,2.392,5.343,5.344v10.685
				C487.641,236.658,485.248,239.051,482.298,239.051z"/>
		</g>
		<g>
			<path fill="#960707" stroke="#960707" stroke-width="4" stroke-miterlimit="10" d="M279.288,538.222
				c-2.95,0-5.342-2.391-5.342-5.343V361.924c0-2.949,2.393-5.343,5.342-5.343c2.951,0,5.344,2.393,5.344,5.343v170.955
				C284.631,535.831,282.239,538.222,279.288,538.222z"/>
		</g>
	</g>
</g>
</svg>
