<?xml version="1.0" encoding="utf-8"?>
<!-- Generator: Adobe Illustrator 16.0.0, SVG Export Plug-In . SVG Version: 6.00 Build 0)  -->
<!DOCTYPE svg PUBLIC "-//W3C//DTD SVG 1.1//EN" "http://www.w3.org/Graphics/SVG/1.1/DTD/svg11.dtd">
<svg version="1.1" id="Layer_1" xmlns="http://www.w3.org/2000/svg" xmlns:xlink="http://www.w3.org/1999/xlink" x="0px" y="0px"
	 width="312px" height="121px" viewBox="0 0 312 121" enable-background="new 0 0 312 121" xml:space="preserve">
<g>
	<defs>
		<rect id="SVGID_1_" x="-11" y="-54.96" width="842" height="1566.285"/>
	</defs>
	<clipPath id="SVGID_2_">
		<use xlink:href="#SVGID_1_"  overflow="visible"/>
	</clipPath>
	<rect x="-11" y="-54.96" clip-path="url(#SVGID_2_)" fill="#FFFFFF" width="842" height="1566.285"/>
	<rect x="-11" y="-54.96" clip-path="url(#SVGID_2_)" fill="#FFFFFF" width="842" height="1558.787"/>
</g>
<g>
	<defs>
		<rect id="SVGID_3_" x="-11" y="-54.96" width="842" height="1558.787"/>
	</defs>
	<clipPath id="SVGID_4_">
		<use xlink:href="#SVGID_3_"  overflow="visible"/>
	</clipPath>
	<rect x="-11" y="-54.96" clip-path="url(#SVGID_4_)" fill="#FFFFFF" width="842" height="1558.787"/>
</g>
<g>
	<defs>
		<rect id="SVGID_5_" x="-11" y="-54.96" width="842" height="1558.787"/>
	</defs>
	<clipPath id="SVGID_6_">
		<use xlink:href="#SVGID_5_"  overflow="visible"/>
	</clipPath>
</g>
<g>
	<defs>
		<rect id="SVGID_13_" x="-11" y="-54.96" width="842" height="1558.787"/>
	</defs>
	<clipPath id="SVGID_8_">
		<use xlink:href="#SVGID_13_"  overflow="visible"/>
	</clipPath>
	<g opacity="0.6392" clip-path="url(#SVGID_8_)" enable-background="new    ">
		<g>
			<defs>
				<rect id="SVGID_15_" x="-11" y="15.36" width="841.92" height="569.28"/>
			</defs>
			<clipPath id="SVGID_10_">
				<use xlink:href="#SVGID_15_"  overflow="visible"/>
			</clipPath>
			<g clip-path="url(#SVGID_10_)">
				<defs>
					<rect id="SVGID_17_" x="-11.24" y="122.306" width="842.4" height="380.137"/>
				</defs>
				<clipPath id="SVGID_12_">
					<use xlink:href="#SVGID_17_"  overflow="visible"/>
				</clipPath>
				<g clip-path="url(#SVGID_12_)">
					<defs>
						<rect id="SVGID_19_" x="-14.425" y="15.425" width="851.748" height="568.331"/>
					</defs>
					<clipPath id="SVGID_14_">
						<use xlink:href="#SVGID_19_"  overflow="visible"/>
					</clipPath>
					<g transform="matrix(1 0 0 1 -9.536743e-007 0)" clip-path="url(#SVGID_14_)">
						
							<image overflow="visible" width="800" height="534" xlink:href="2A31452E.jpg"  transform="matrix(1.0647 0 0 1.0643 -14.4253 15.4248)">
						</image>
					</g>
				</g>
			</g>
		</g>
	</g>
</g>
<g>
	<defs>
		<rect id="SVGID_21_" x="63.458" y="12.55" width="44.915" height="89.829"/>
	</defs>
	<clipPath id="SVGID_16_">
		<use xlink:href="#SVGID_21_"  overflow="visible"/>
	</clipPath>
	<g clip-path="url(#SVGID_16_)">
		<defs>
			<rect id="SVGID_23_" x="18.405" y="12.55" width="89.829" height="89.829"/>
		</defs>
		<clipPath id="SVGID_18_">
			<use xlink:href="#SVGID_23_"  overflow="visible"/>
		</clipPath>
		<g clip-path="url(#SVGID_18_)">
			
				<image overflow="visible" width="800" height="800" xlink:href="2A314532.png"  transform="matrix(0.1123 0 0 0.1123 18.4048 12.5503)">
			</image>
		</g>
	</g>
</g>
<g>
	<defs>
		<rect id="SVGID_25_" x="7.692" y="0.301" width="111.387" height="111.388"/>
	</defs>
	<clipPath id="SVGID_20_">
		<use xlink:href="#SVGID_25_"  overflow="visible"/>
	</clipPath>
	<g clip-path="url(#SVGID_20_)">
		<defs>
			<rect id="SVGID_27_" x="7.692" y="0.301" width="111.387" height="111.388"/>
		</defs>
		<clipPath id="SVGID_22_">
			<use xlink:href="#SVGID_27_"  overflow="visible"/>
		</clipPath>
		<g clip-path="url(#SVGID_22_)">
			
				<image overflow="visible" width="800" height="800" xlink:href="2A314535.png"  transform="matrix(8.525649e-018 0.1392 -0.1392 8.525649e-018 119.0796 0.3008)">
			</image>
		</g>
	</g>
</g>
<g>
	<defs>
		<rect id="SVGID_29_" x="61.878" y="24.74" width="35.033" height="35.033"/>
	</defs>
	<clipPath id="SVGID_24_">
		<use xlink:href="#SVGID_29_"  overflow="visible"/>
	</clipPath>
	<g clip-path="url(#SVGID_24_)">
		<defs>
			<rect id="SVGID_31_" x="25.244" y="24.74" width="71.863" height="71.863"/>
		</defs>
		<clipPath id="SVGID_26_">
			<use xlink:href="#SVGID_31_"  overflow="visible"/>
		</clipPath>
		<g transform="matrix(1 0 0 1 -1.525879e-005 -3.814697e-006)" clip-path="url(#SVGID_26_)">
			
				<image overflow="visible" width="800" height="800" xlink:href="2A314536.png"  transform="matrix(5.500419e-018 0.0898 -0.0898 5.500419e-018 97.1064 24.7402)">
			</image>
		</g>
	</g>
</g>
<g>
	<defs>
		<rect id="SVGID_33_" x="65.077" y="12.55" width="44.915" height="89.829"/>
	</defs>
	<clipPath id="SVGID_28_">
		<use xlink:href="#SVGID_33_"  overflow="visible"/>
	</clipPath>
	<g clip-path="url(#SVGID_28_)">
		<defs>
			<rect id="SVGID_35_" x="20.023" y="12.55" width="89.829" height="89.829"/>
		</defs>
		<clipPath id="SVGID_30_">
			<use xlink:href="#SVGID_35_"  overflow="visible"/>
		</clipPath>
		<g clip-path="url(#SVGID_30_)">
			
				<image overflow="visible" width="800" height="800" xlink:href="2A314534.png"  transform="matrix(0.1123 0 0 0.1123 20.0229 12.5503)">
			</image>
		</g>
	</g>
</g>
<g>
	<defs>
		<rect id="SVGID_37_" x="46.908" y="42.578" width="33.236" height="33.236"/>
	</defs>
	<clipPath id="SVGID_32_">
		<use xlink:href="#SVGID_37_"  overflow="visible"/>
	</clipPath>
	<path clip-path="url(#SVGID_32_)" fill="#777777" d="M59.43,75.267C59.471,75.287,59.497,75.278,59.43,75.267z"/>
	<path clip-path="url(#SVGID_32_)" fill="#777777" d="M51.419,47.452c0.01-0.009,0.014-0.016,0.023-0.025
		c-0.015-0.049-0.026-0.092-0.032-0.128L51.419,47.452z"/>
	<path clip-path="url(#SVGID_32_)" fill="#777777" d="M56.063,44.308l0.036-0.005C56.083,44.28,56.078,44.253,56.063,44.308z"/>
	<path clip-path="url(#SVGID_32_)" fill="#777777" d="M47.16,59.349c-0.01-0.027-0.019-0.055-0.022-0.093
		C47.135,59.304,47.146,59.33,47.16,59.349z"/>
	<path clip-path="url(#SVGID_32_)" fill="#777777" d="M69.415,74.681l-0.021,0.012c0.021,0.001,0.042,0.001,0.065,0.005
		L69.415,74.681z"/>
	<path clip-path="url(#SVGID_32_)" fill="#777777" d="M69.29,74.784c0.007,0.004,0.02,0.006,0.045,0.005
		C69.324,74.784,69.308,74.784,69.29,74.784z"/>
	<path clip-path="url(#SVGID_32_)" fill="#777777" d="M69.29,74.784c-0.027-0.017,0.065-0.07,0.103-0.091
		c-0.146-0.013-0.274,0.025-0.395,0.093C69.018,74.841,69.192,74.786,69.29,74.784z"/>
	<path clip-path="url(#SVGID_32_)" fill="#777777" d="M79.473,63.982l0.095,0.062C79.532,64.004,79.501,63.988,79.473,63.982z"/>
	<path clip-path="url(#SVGID_32_)" fill="#777777" d="M60.954,42.729c0.008,0.032,0.024,0.056,0.042,0.076l0.014-0.001
		L60.954,42.729z"/>
	<path clip-path="url(#SVGID_32_)" fill="#777777" d="M67.845,43.429c0.009-0.011,0.028-0.018,0.032-0.031
		c-0.104-0.064-0.406-0.146-0.797-0.218l-0.05,0.125C67.302,43.339,67.574,43.381,67.845,43.429z"/>
	<path clip-path="url(#SVGID_32_)" fill="#777777" d="M65.383,42.619l0.077-0.035C65.426,42.594,65.402,42.606,65.383,42.619z"/>
	<path clip-path="url(#SVGID_32_)" fill="#777777" d="M78.082,67.514c-0.007,0.015-0.011,0.03-0.019,0.045
		C78.078,67.538,78.083,67.523,78.082,67.514z"/>
	<path clip-path="url(#SVGID_32_)" fill="#777777" d="M79.07,59.235c0-0.026,0.002-0.053,0.002-0.08
		c0-1.562-0.239-3.068-0.684-4.484c-0.014-0.129-0.025-0.266-0.038-0.404c-0.047-0.545-0.112-1.122-0.196-1.317
		c-0.018-0.461-0.442-0.847-0.627-1.348c-0.391-0.756-0.046-0.466-0.174-0.896c-0.225-0.501-0.072,0.176-0.198-0.001
		c-0.064-0.214-0.135-0.428-0.208-0.641c0.23,0.301,0.179,0.088,0.182,0c-0.297-0.48-0.682-1.339-1.006-1.296
		c-0.411-0.661-0.347-0.731-0.568-0.981c0.044,0.114,0.166,0.303,0.126,0.342c-0.129-0.305-0.123-0.086-0.055,0.023
		c-0.203-0.132-0.543-0.649-0.907-1.101c-0.36-0.453-0.736-0.836-0.865-0.751l0.033-0.042c-0.221,0.105-0.212,0.378-0.544,0.28
		l-0.116-0.206l-0.321-0.112c-0.14-0.181-0.019-0.168-0.004-0.19c-0.496-0.217-1.065-0.705-1.634-1.027
		c0.112,0.281,0.215,0.562,0.307,0.842c-0.194-0.19-0.473-0.458-0.735-0.656c-0.262-0.198-0.5-0.329-0.588-0.263l-0.218-0.311
		c-0.431-0.383-0.634-0.406-0.76-0.374c-0.127,0.034-0.188,0.127-0.375,0.004c-0.149-0.126-0.302-0.249-0.458-0.371
		c0.175,0.054,0.35,0.108,0.524,0.168c-0.489-0.274-0.684-0.402-1.081-0.649c-0.001,0.002-0.006,0.002-0.007,0.004
		c0.028,0.016,0.045,0.031,0.045,0.045l-0.076-0.014c-0.093,0.088-0.39,0.09-0.771,0.008c-0.543-0.134-0.983-0.052-1.844-0.359
		l-0.237,0.205c-0.216-0.059-0.434-0.114-0.654-0.164l0.005-0.177c0.328,0.014,0.802,0.024,1.299,0.062
		c0.498,0.035,1.018,0.098,1.435,0.176l0.031-0.077c-0.497-0.1-1.078-0.102-1.407-0.154c-0.138-0.048-0.472-0.228-0.32-0.331
		l-0.252,0.111c-0.849-0.048-1.275-0.031-1.712-0.043c-0.438-0.004-0.885-0.041-1.786-0.026l0.165,0.068
		c-0.345,0.094-0.681,0.202-0.803,0.077c-1.064,0.148-2.163,0.354-2.91,0.389l-0.073,0.248c-0.217,0.066-0.659-0.097-0.65,0.216
		c-0.139,0.091-0.276,0.185-0.412,0.278c-0.291,0.115-0.41,0.302-0.78,0.356c-0.001,0-0.002,0-0.002,0l-0.071,0.009
		c0.003,0.005,0.007,0.01,0.012,0.014c-0.667,0.251,0.092,0.154-0.668,0.441c-0.3,0.003-0.111,0.37-0.462,0.533
		c-0.163-0.015-0.328-0.026-0.493-0.036c-0.345,0.127-0.499,0.277-0.667,0.468c-0.167,0.191-0.351,0.422-0.743,0.75
		c-0.442,0.236-0.797,0.218-0.699-0.176c-0.158,0.512-0.04,0.271-0.388,0.782c-0.146-0.015-0.118-0.077-0.091-0.244
		c-0.483,0.286-0.168,0.306-0.458,0.592c0.072,0.232,0.231,0.559,0.156,0.661l0.152-0.067c-0.2,0.381-0.451,0.751-0.833,1.063
		l-0.074-0.081c-0.092,0.146-0.182,0.293-0.269,0.441l-0.13-0.055c-0.135,0.207-0.265,0.416-0.39,0.628l0.087-0.063
		c-0.085,0.152-0.352,0.65-0.576,0.895l-0.06-0.048c-0.673,0.683-0.743,1.514-1.104,2.511l-0.094-0.187
		c-0.277,0.289,0.186,0.178-0.036,0.559l-0.188-0.042c0.112,0.445-0.21,0.453-0.381,0.685l0.277-0.046
		c-0.066,0.154-0.131,0.308-0.192,0.464c-0.224,0.51-0.393,0.251-0.501,0.137l0.1,0.419l-0.233,0.023
		c0.191,0.329-0.105,0.266-0.062,0.776c-0.09,0.025-0.115-0.106-0.18,0.053c0.055,0.286,0.116,0.568,0.186,0.847
		c-0.025-0.166-0.048-0.332-0.068-0.5l0.311,0.107c0.17,0.525-0.126,0.663-0.071,1.028l-0.071-0.253
		c0.021,0.586-0.113,0.605-0.205,0.932c0.065-0.1,0.164-0.249,0.193-0.012c0.01,0.173-0.119,0.088-0.161,0.25
		c0.214,0.049,0.314,0.46,0.219,0.835c-0.031-0.004-0.061-0.012-0.08-0.036c0.037,0.096,0.092,0.145,0.045,0.312l-0.243-0.092
		l0.24,0.316c-0.057,0.218,0.139,0.519-0.024,0.502l-0.057-0.119c0.017,0.545,0.061,1.09,0.131,1.634l-0.186,0.054
		c0.281,0.116,0.072,0.907,0.386,0.787c-0.116,0.347,0.424,1.148,0.02,1.071c0.138,0.53,0.355,0.903,0.572,1.298
		c0.221,0.396,0.44,0.813,0.65,1.443c-0.038,0.279,0.119,0.701,0.353,1.134c0.232,0.436,0.542,0.88,0.777,1.239
		c0.54,0.646,1.029,1.136,1.539,1.604c0.511,0.466,1.044,0.909,1.722,1.411c0.249,0.492,0.787,0.857,1.358,1.164
		c0.574,0.309,1.176,0.561,1.605,0.921l0.346-0.019c0.262,0.285,0.689,0.466,1.156,0.635c0.467,0.172,0.972,0.331,1.424,0.606
		c0.263-0.001,0.396,0.01,0.454,0.02c-0.042-0.021-0.101-0.07-0.092-0.183c0.257,0.156,0.852,0.196,0.761,0.4l-0.078,0.005
		c-0.046,0.103,0.178,0.128,0.447,0.154c0.271,0.026,0.585,0.046,0.732,0.165l-0.138-0.261c0.179,0.043,0.358,0.084,0.539,0.122
		l-0.152,0.024c1.22-0.095,2.059-0.021,2.909,0.022c0.841,0.035,1.699,0.03,2.748-0.415c-0.238,0.311,0.402-0.217,0.49,0.046
		c0.638,0.218,1.003-0.333,1.403-0.561c-0.004-0.013-0.004-0.03,0.014-0.059c0.257-0.071,0.512-0.15,0.766-0.234
		c-0.319,0.502,0.43-0.482,0.131-0.042c1.023-0.252,2.124-0.798,3.156-1.502c1.037-0.702,2-1.558,2.881-2.39l-0.14,0.013
		c0.444-0.426,0.847-1.074,1.246-1.352c0.406-0.283,0.41-0.955,0.492-1.108c0.126-0.441,0.529-0.674,0.537-0.601
		c0.219-0.482,0.191-1.052,0.615-1.641c0.192-0.052,0.333-0.549,0.436-1.019c0.105-0.469,0.173-0.911,0.341-0.872l-0.025-0.016
		c0.256-0.418,0.336-0.882,0.393-1.35c0.056-0.47,0.091-0.945,0.263-1.438c0,0,0.023,0.022,0.041,0.06
		c-0.254-0.734-0.559-1.43-0.905-2.082C79.184,59.184,79.126,59.208,79.07,59.235z"/>
	<polygon clip-path="url(#SVGID_32_)" fill="#777777" points="71.232,44.983 71.267,45.003 71.192,44.817 	"/>
	<path clip-path="url(#SVGID_32_)" fill="#777777" d="M77.342,50.324c-0.182-0.322-0.213-0.322-0.214-0.259
		C77.2,50.178,77.271,50.27,77.342,50.324z"/>
</g>
<g>
	<defs>
		<rect id="SVGID_39_" x="-1" y="-26.96" width="842" height="1558.787"/>
	</defs>
	<clipPath id="SVGID_34_">
		<use xlink:href="#SVGID_39_"  overflow="visible"/>
	</clipPath>
	<g clip-path="url(#SVGID_34_)">
		<text transform="matrix(1 0 0 1 137.3696 65.3828)" fill="#777777" font-family="'Raleway-Heavy'" font-size="23.9326">M</text>
	</g>
	<g clip-path="url(#SVGID_34_)">
		<text transform="matrix(1 0 0 1 157.8081 65.3828)" fill="#777777" font-family="'Raleway-Heavy'" font-size="23.9326">U</text>
	</g>
	<g clip-path="url(#SVGID_34_)">
		<text transform="matrix(1 0 0 1 175.542 65.3828)" fill="#777777" font-family="'Raleway-Heavy'" font-size="23.9326">N</text>
	</g>
	<g clip-path="url(#SVGID_34_)">
		<text transform="matrix(1 0 0 1 193.5874 65.3828)" fill="#777777" font-family="'Raleway-Heavy'" font-size="23.9326">I</text>
	</g>
	<g clip-path="url(#SVGID_34_)">
		<text transform="matrix(1 0 0 1 201.1738 65.3828)" fill="#777777" font-family="'Raleway-Heavy'" font-size="23.9326">C</text>
	</g>
	<g clip-path="url(#SVGID_34_)">
		<text transform="matrix(1 0 0 1 216.8501 65.3828)" fill="#777777" font-family="'Raleway-Heavy'" font-size="23.9326">I</text>
	</g>
	<g clip-path="url(#SVGID_34_)">
		<text transform="matrix(1 0 0 1 224.4365 65.3828)" fill="#777777" font-family="'Raleway-Heavy'" font-size="23.9326">P</text>
	</g>
	<g clip-path="url(#SVGID_34_)">
		<text transform="matrix(1 0 0 1 239.2749 65.3828)" fill="#777777" font-family="'Raleway-Heavy'" font-size="23.9326">A</text>
	</g>
	<g clip-path="url(#SVGID_34_)">
		<text transform="matrix(1 0 0 1 255.3335 65.3828)" fill="#777777" font-family="'Raleway-Heavy'" font-size="23.9326">L</text>
	</g>
	<g clip-path="url(#SVGID_34_)">
		<text transform="matrix(1 0 0 1 269.4058 65.3828)" fill="#777777" font-family="'Raleway-Heavy'" font-size="23.9326">I</text>
	</g>
	<g clip-path="url(#SVGID_34_)">
		<text transform="matrix(1 0 0 1 276.9922 65.3828)" fill="#777777" font-family="'Raleway-Heavy'" font-size="23.9326">T</text>
	</g>
	<g clip-path="url(#SVGID_34_)">
		<text transform="matrix(1 0 0 1 291.9263 65.3828)" fill="#777777" font-family="'Raleway-Heavy'" font-size="23.9326">Y</text>
	</g>
	<g clip-path="url(#SVGID_34_)">
		<text transform="matrix(1 0 0 1 307.5239 65.3828)" fill="#777777" font-family="'Raleway-Heavy'" font-size="23.9326"> </text>
	</g>
	<g clip-path="url(#SVGID_34_)">
		<text transform="matrix(1 0 0 1 137.3696 89.3154)" fill="#E88684" font-family="'Raleway-Heavy'" font-size="24.7531">D</text>
	</g>
	<g clip-path="url(#SVGID_34_)">
		<text transform="matrix(1 0 0 1 155.1167 89.3154)" fill="#E88684" font-family="'Raleway-Heavy'" font-size="24.7531">A</text>
	</g>
	<g clip-path="url(#SVGID_34_)">
		<text transform="matrix(1 0 0 1 171.7246 89.3154)" fill="#E88684" font-family="'Raleway-Heavy'" font-size="24.7531">T</text>
	</g>
	<g clip-path="url(#SVGID_34_)">
		<text transform="matrix(1 0 0 1 187.1699 89.3154)" fill="#E88684" font-family="'Raleway-Heavy'" font-size="24.7531">A</text>
	</g>
	<g clip-path="url(#SVGID_34_)">
		<text transform="matrix(1 0 0 1 203.7783 89.3154)" fill="#E88684" font-family="'Raleway-Heavy'" font-size="24.7531"> </text>
	</g>
	<g clip-path="url(#SVGID_34_)">
		<text transform="matrix(1 0 0 1 209.3477 89.3154)" fill="#E88684" font-family="'Raleway-Heavy'" font-size="24.7531">P</text>
	</g>
	<g clip-path="url(#SVGID_34_)">
		<text transform="matrix(1 0 0 1 224.6938 89.3154)" fill="#E88684" font-family="'Raleway-Heavy'" font-size="24.7531">O</text>
	</g>
	<g clip-path="url(#SVGID_34_)">
		<text transform="matrix(1 0 0 1 242.688 89.3154)" fill="#E88684" font-family="'Raleway-Heavy'" font-size="24.7531">R</text>
	</g>
	<g clip-path="url(#SVGID_34_)">
		<text transform="matrix(1 0 0 1 259.6675 89.3154)" fill="#E88684" font-family="'Raleway-Heavy'" font-size="24.7531">T</text>
	</g>
	<g clip-path="url(#SVGID_34_)">
		<text transform="matrix(1 0 0 1 275.1128 89.3154)" fill="#E88684" font-family="'Raleway-Heavy'" font-size="24.7531">A</text>
	</g>
	<g clip-path="url(#SVGID_34_)">
		<text transform="matrix(1 0 0 1 291.7212 89.3154)" fill="#E88684" font-family="'Raleway-Heavy'" font-size="24.7531">L</text>
	</g>
	<g clip-path="url(#SVGID_34_)">
		<text transform="matrix(1 0 0 1 137.3696 117.5132)" fill="#777777" font-family="'Raleway-Regular'" font-size="15.7909">R</text>
	</g>
	<g clip-path="url(#SVGID_34_)">
		<text transform="matrix(1 0 0 1 147.6812 117.5132)" fill="#777777" font-family="'Raleway-Regular'" font-size="15.7909">e</text>
	</g>
	<g clip-path="url(#SVGID_34_)">
		<text transform="matrix(1 0 0 1 156.9502 117.5132)" fill="#777777" font-family="'Raleway-Regular'" font-size="15.7909">p</text>
	</g>
	<g clip-path="url(#SVGID_34_)">
		<text transform="matrix(1 0 0 1 166.6934 117.5132)" fill="#777777" font-family="'Raleway-Regular'" font-size="15.7909">ú</text>
	</g>
	<g clip-path="url(#SVGID_34_)">
		<text transform="matrix(1 0 0 1 176.0732 117.5132)" fill="#777777" font-family="'Raleway-Regular'" font-size="15.7909">b</text>
	</g>
	<g clip-path="url(#SVGID_34_)">
		<text transform="matrix(1 0 0 1 185.8164 117.5132)" fill="#777777" font-family="'Raleway-Regular'" font-size="15.7909">l</text>
	</g>
	<g clip-path="url(#SVGID_34_)">
		<text transform="matrix(1 0 0 1 190.1113 117.5132)" fill="#777777" font-family="'Raleway-Regular'" font-size="15.7909">i</text>
	</g>
	<g clip-path="url(#SVGID_34_)">
		<text transform="matrix(1 0 0 1 193.5537 117.5132)" fill="#777777" font-family="'Raleway-Regular'" font-size="15.7909">c</text>
	</g>
	<g clip-path="url(#SVGID_34_)">
		<text transform="matrix(1 0 0 1 202.2231 117.5132)" fill="#777777" font-family="'Raleway-Regular'" font-size="15.7909">a</text>
	</g>
	<g clip-path="url(#SVGID_34_)">
		<text transform="matrix(1 0 0 1 210.8291 117.5132)" fill="#777777" font-family="'Raleway-Regular'" font-size="15.7909"> </text>
	</g>
	<g clip-path="url(#SVGID_34_)">
		<text transform="matrix(1 0 0 1 214.856 117.5132)" fill="#777777" font-family="'Raleway-Regular'" font-size="15.7909">D</text>
	</g>
	<g clip-path="url(#SVGID_34_)">
		<text transform="matrix(1 0 0 1 226.1465 117.5132)" fill="#777777" font-family="'Raleway-Regular'" font-size="15.7909">e</text>
	</g>
	<g clip-path="url(#SVGID_34_)">
		<text transform="matrix(1 0 0 1 235.416 117.5132)" fill="#777777" font-family="'Raleway-Regular'" font-size="15.7909">m</text>
	</g>
	<g clip-path="url(#SVGID_34_)">
		<text transform="matrix(1 0 0 1 249.9277 117.5132)" fill="#777777" font-family="'Raleway-Regular'" font-size="15.7909">o</text>
	</g>
	<g clip-path="url(#SVGID_34_)">
		<text transform="matrix(1 0 0 1 259.3232 117.5132)" fill="#777777" font-family="'Raleway-Regular'" font-size="15.7909">c</text>
	</g>
	<g clip-path="url(#SVGID_34_)">
		<text transform="matrix(1 0 0 1 267.9922 117.5132)" fill="#777777" font-family="'Raleway-Regular'" font-size="15.7909">r</text>
	</g>
	<g clip-path="url(#SVGID_34_)">
		<text transform="matrix(1 0 0 1 273.5352 117.5132)" fill="#777777" font-family="'Raleway-Regular'" font-size="15.7909">á</text>
	</g>
	<g clip-path="url(#SVGID_34_)">
		<text transform="matrix(1 0 0 1 282.1411 117.5132)" fill="#777777" font-family="'Raleway-Regular'" font-size="15.7909">t</text>
	</g>
	<g clip-path="url(#SVGID_34_)">
		<text transform="matrix(1 0 0 1 287.4312 117.5132)" fill="#777777" font-family="'Raleway-Regular'" font-size="15.7909">i</text>
	</g>
	<g clip-path="url(#SVGID_34_)">
		<text transform="matrix(1 0 0 1 290.8735 117.5132)" fill="#777777" font-family="'Raleway-Regular'" font-size="15.7909">c</text>
	</g>
	<g clip-path="url(#SVGID_34_)">
		<text transform="matrix(1 0 0 1 299.543 117.5132)" fill="#777777" font-family="'Raleway-Regular'" font-size="15.7909">a</text>
	</g>
	<g clip-path="url(#SVGID_34_)">
		<text transform="matrix(1 0 0 1 137.3696 132.9277)" fill="#777777" font-family="'Raleway-Regular'" font-size="15.7909">d</text>
	</g>
	<g clip-path="url(#SVGID_34_)">
		<text transform="matrix(1 0 0 1 147.1914 132.9277)" fill="#777777" font-family="'Raleway-Regular'" font-size="15.7909">e</text>
	</g>
	<g clip-path="url(#SVGID_34_)">
		<text transform="matrix(1 0 0 1 156.4609 132.9277)" fill="#777777" font-family="'Raleway-Regular'" font-size="15.7909"> </text>
	</g>
	<g clip-path="url(#SVGID_34_)">
		<text transform="matrix(1 0 0 1 160.4873 132.9277)" fill="#777777" font-family="'Raleway-Regular'" font-size="15.7909">T</text>
	</g>
	<g clip-path="url(#SVGID_34_)">
		<text transform="matrix(1 0 0 1 170.1201 132.9277)" fill="#777777" font-family="'Raleway-Regular'" font-size="15.7909">i</text>
	</g>
	<g clip-path="url(#SVGID_34_)">
		<text transform="matrix(1 0 0 1 173.5625 132.9277)" fill="#777777" font-family="'Raleway-Regular'" font-size="15.7909">m</text>
	</g>
	<g clip-path="url(#SVGID_34_)">
		<text transform="matrix(1 0 0 1 188.0742 132.9277)" fill="#777777" font-family="'Raleway-Regular'" font-size="15.7909">o</text>
	</g>
	<g clip-path="url(#SVGID_34_)">
		<text transform="matrix(1 0 0 1 197.4697 132.9277)" fill="#777777" font-family="'Raleway-Regular'" font-size="15.7909">r</text>
	</g>
	<g clip-path="url(#SVGID_34_)">
		<text transform="matrix(1 0 0 1 203.0127 132.9277)" fill="#777777" font-family="'Raleway-Regular'" font-size="15.7909">-</text>
	</g>
	<g clip-path="url(#SVGID_34_)">
		<text transform="matrix(1 0 0 1 209.6768 132.9277)" fill="#777777" font-family="'Raleway-Regular'" font-size="15.7909">L</text>
	</g>
	<g clip-path="url(#SVGID_34_)">
		<text transform="matrix(1 0 0 1 218.8828 132.9277)" fill="#777777" font-family="'Raleway-Regular'" font-size="15.7909">e</text>
	</g>
	<g clip-path="url(#SVGID_34_)">
		<text transform="matrix(1 0 0 1 228.1519 132.9277)" fill="#777777" font-family="'Raleway-Regular'" font-size="15.7909">s</text>
	</g>
	<g clip-path="url(#SVGID_34_)">
		<text transform="matrix(1 0 0 1 235.8418 132.9277)" fill="#777777" font-family="'Raleway-Regular'" font-size="15.7909">t</text>
	</g>
	<g clip-path="url(#SVGID_34_)">
		<text transform="matrix(1 0 0 1 241.1318 132.9277)" fill="#777777" font-family="'Raleway-Regular'" font-size="15.7909">e</text>
	</g>
	<polygon clip-path="url(#SVGID_34_)" fill="#E88684" points="302.699,97.792 138.628,97.792 138.628,99.579 310.139,99.579 
		310.139,97.792 	"/>
</g>
<g>
	<defs>
		<rect id="SVGID_41_" x="61.096" y="25.922" width="35.033" height="35.033"/>
	</defs>
	<clipPath id="SVGID_36_">
		<use xlink:href="#SVGID_41_"  overflow="visible"/>
	</clipPath>
	<g clip-path="url(#SVGID_36_)">
		<defs>
			<rect id="SVGID_43_" x="24.461" y="25.922" width="71.863" height="71.863"/>
		</defs>
		<clipPath id="SVGID_38_">
			<use xlink:href="#SVGID_43_"  overflow="visible"/>
		</clipPath>
		<g transform="matrix(1 0 0 1 -7.629395e-006 -3.814697e-006)" clip-path="url(#SVGID_38_)">
			
				<image overflow="visible" width="800" height="800" xlink:href="2A314533.png"  transform="matrix(5.500419e-018 0.0898 -0.0898 5.500419e-018 96.3242 25.9224)">
			</image>
		</g>
	</g>
</g>
<g>
	<defs>
		<rect id="SVGID_45_" x="61.878" y="25.305" width="35.033" height="35.033"/>
	</defs>
	<clipPath id="SVGID_40_">
		<use xlink:href="#SVGID_45_"  overflow="visible"/>
	</clipPath>
	<g clip-path="url(#SVGID_40_)">
		<defs>
			<rect id="SVGID_47_" x="25.244" y="25.305" width="71.863" height="71.863"/>
		</defs>
		<clipPath id="SVGID_42_">
			<use xlink:href="#SVGID_47_"  overflow="visible"/>
		</clipPath>
		<g transform="matrix(1 0 0 1 -1.525879e-005 -1.907349e-006)" clip-path="url(#SVGID_42_)">
			
				<image overflow="visible" width="800" height="800" xlink:href="2A31453D.png"  transform="matrix(5.500419e-018 0.0898 -0.0898 5.500419e-018 97.1064 25.3047)">
			</image>
		</g>
	</g>
</g>
<g>
	<defs>
		<rect id="SVGID_49_" x="63.456" y="25.922" width="35.033" height="35.033"/>
	</defs>
	<clipPath id="SVGID_44_">
		<use xlink:href="#SVGID_49_"  overflow="visible"/>
	</clipPath>
	<g clip-path="url(#SVGID_44_)">
		<defs>
			<rect id="SVGID_51_" x="26.821" y="25.922" width="71.863" height="71.863"/>
		</defs>
		<clipPath id="SVGID_46_">
			<use xlink:href="#SVGID_51_"  overflow="visible"/>
		</clipPath>
		<g transform="matrix(1 0 0 1 -1.525879e-005 -3.814697e-006)" clip-path="url(#SVGID_46_)">
			
				<image overflow="visible" width="800" height="800" xlink:href="2A31453E.png"  transform="matrix(5.500419e-018 0.0898 -0.0898 5.500419e-018 98.6841 25.9224)">
			</image>
		</g>
	</g>
</g>
<g>
	<defs>
		<rect id="SVGID_53_" x="61.096" y="27.201" width="35.033" height="35.033"/>
	</defs>
	<clipPath id="SVGID_48_">
		<use xlink:href="#SVGID_53_"  overflow="visible"/>
	</clipPath>
	<g clip-path="url(#SVGID_48_)">
		<defs>
			<rect id="SVGID_55_" x="24.461" y="27.201" width="71.863" height="71.863"/>
		</defs>
		<clipPath id="SVGID_50_">
			<use xlink:href="#SVGID_55_"  overflow="visible"/>
		</clipPath>
		<g transform="matrix(1 0 0 1 -7.629395e-006 -1.907349e-006)" clip-path="url(#SVGID_50_)">
			
				<image overflow="visible" width="800" height="800" xlink:href="2A31453C.png"  transform="matrix(5.500419e-018 0.0898 -0.0898 5.500419e-018 96.3242 27.2012)">
			</image>
		</g>
	</g>
</g>
<g>
	<defs>
		<rect id="SVGID_57_" x="63.396" y="27.201" width="35.033" height="35.033"/>
	</defs>
	<clipPath id="SVGID_52_">
		<use xlink:href="#SVGID_57_"  overflow="visible"/>
	</clipPath>
	<g clip-path="url(#SVGID_52_)">
		<defs>
			<rect id="SVGID_59_" x="26.761" y="27.201" width="71.863" height="71.863"/>
		</defs>
		<clipPath id="SVGID_54_">
			<use xlink:href="#SVGID_59_"  overflow="visible"/>
		</clipPath>
		<g transform="matrix(1 0 0 1 -1.525879e-005 -1.907349e-006)" clip-path="url(#SVGID_54_)">
			
				<image overflow="visible" width="800" height="800" xlink:href="191EFFF1.png"  transform="matrix(5.500419e-018 0.0898 -0.0898 5.500419e-018 98.624 27.2012)">
			</image>
		</g>
	</g>
</g>
<g>
	<defs>
		<rect id="SVGID_61_" x="27.515" y="58.354" width="35.033" height="35.033"/>
	</defs>
	<clipPath id="SVGID_56_">
		<use xlink:href="#SVGID_61_"  overflow="visible"/>
	</clipPath>
	<g clip-path="url(#SVGID_56_)">
		<defs>
			<rect id="SVGID_63_" x="27.32" y="21.524" width="71.863" height="71.863"/>
		</defs>
		<clipPath id="SVGID_58_">
			<use xlink:href="#SVGID_63_"  overflow="visible"/>
		</clipPath>
		<g transform="matrix(1 0 0 1 -1.907349e-006 -7.629395e-006)" clip-path="url(#SVGID_58_)">
			
				<image overflow="visible" width="800" height="800" xlink:href="191EFFF7.png"  transform="matrix(5.500419e-018 -0.0898 0.0898 5.500419e-018 27.3198 93.3877)">
			</image>
		</g>
	</g>
</g>
<g>
	<defs>
		<rect id="SVGID_65_" x="28.297" y="57.172" width="35.033" height="35.033"/>
	</defs>
	<clipPath id="SVGID_60_">
		<use xlink:href="#SVGID_65_"  overflow="visible"/>
	</clipPath>
	<g clip-path="url(#SVGID_60_)">
		<defs>
			<rect id="SVGID_67_" x="28.103" y="20.342" width="71.863" height="71.863"/>
		</defs>
		<clipPath id="SVGID_62_">
			<use xlink:href="#SVGID_67_"  overflow="visible"/>
		</clipPath>
		<g transform="matrix(1 0 0 1 -3.814697e-006 -7.629395e-006)" clip-path="url(#SVGID_62_)">
			
				<image overflow="visible" width="800" height="800" xlink:href="191EFFF0.png"  transform="matrix(5.500419e-018 -0.0898 0.0898 5.500419e-018 28.1025 92.2051)">
			</image>
		</g>
	</g>
</g>
<g>
	<defs>
		<rect id="SVGID_69_" x="27.515" y="57.79" width="35.033" height="35.033"/>
	</defs>
	<clipPath id="SVGID_64_">
		<use xlink:href="#SVGID_69_"  overflow="visible"/>
	</clipPath>
	<g clip-path="url(#SVGID_64_)">
		<defs>
			<rect id="SVGID_71_" x="27.32" y="20.96" width="71.863" height="71.863"/>
		</defs>
		<clipPath id="SVGID_66_">
			<use xlink:href="#SVGID_71_"  overflow="visible"/>
		</clipPath>
		<g transform="matrix(1 0 0 1 -1.907349e-006 -7.629395e-006)" clip-path="url(#SVGID_66_)">
			
				<image overflow="visible" width="800" height="800" xlink:href="191EFFF3.png"  transform="matrix(5.500419e-018 -0.0898 0.0898 5.500419e-018 27.3198 92.8232)">
			</image>
		</g>
	</g>
</g>
<g>
	<defs>
		<rect id="SVGID_73_" x="25.938" y="57.172" width="35.033" height="35.033"/>
	</defs>
	<clipPath id="SVGID_68_">
		<use xlink:href="#SVGID_73_"  overflow="visible"/>
	</clipPath>
	<g clip-path="url(#SVGID_68_)">
		<defs>
			<rect id="SVGID_75_" x="25.742" y="20.342" width="71.863" height="71.863"/>
		</defs>
		<clipPath id="SVGID_70_">
			<use xlink:href="#SVGID_75_"  overflow="visible"/>
		</clipPath>
		<g transform="matrix(1 0 0 1 -3.814697e-006 -7.629395e-006)" clip-path="url(#SVGID_70_)">
			
				<image overflow="visible" width="800" height="800" xlink:href="191EFFEF.png"  transform="matrix(5.500419e-018 -0.0898 0.0898 5.500419e-018 25.7422 92.2051)">
			</image>
		</g>
	</g>
</g>
<g>
	<defs>
		<rect id="SVGID_77_" x="28.297" y="55.894" width="35.033" height="35.033"/>
	</defs>
	<clipPath id="SVGID_72_">
		<use xlink:href="#SVGID_77_"  overflow="visible"/>
	</clipPath>
	<g clip-path="url(#SVGID_72_)">
		<defs>
			<rect id="SVGID_79_" x="28.103" y="19.063" width="71.863" height="71.863"/>
		</defs>
		<clipPath id="SVGID_74_">
			<use xlink:href="#SVGID_79_"  overflow="visible"/>
		</clipPath>
		<g transform="matrix(1 0 0 1 -3.814697e-006 -7.629395e-006)" clip-path="url(#SVGID_74_)">
			
				<image overflow="visible" width="800" height="800" xlink:href="191F000F.png"  transform="matrix(5.500419e-018 -0.0898 0.0898 5.500419e-018 28.1025 90.9263)">
			</image>
		</g>
	</g>
</g>
<g>
	<defs>
		<rect id="SVGID_81_" x="25.998" y="55.894" width="35.033" height="35.033"/>
	</defs>
	<clipPath id="SVGID_76_">
		<use xlink:href="#SVGID_81_"  overflow="visible"/>
	</clipPath>
	<g clip-path="url(#SVGID_76_)">
		<defs>
			<rect id="SVGID_83_" x="25.803" y="19.063" width="71.863" height="71.863"/>
		</defs>
		<clipPath id="SVGID_78_">
			<use xlink:href="#SVGID_83_"  overflow="visible"/>
		</clipPath>
		<g transform="matrix(1 0 0 1 -1.907349e-006 -7.629395e-006)" clip-path="url(#SVGID_78_)">
			
				<image overflow="visible" width="800" height="800" xlink:href="191F0011.png"  transform="matrix(5.500419e-018 -0.0898 0.0898 5.500419e-018 25.8027 90.9263)">
			</image>
		</g>
	</g>
</g>
<g>
	<defs>
		<rect id="SVGID_85_" x="63.648" y="48.437" width="10.586" height="22.458"/>
	</defs>
	<clipPath id="SVGID_80_">
		<use xlink:href="#SVGID_85_"  overflow="visible"/>
	</clipPath>
	<path clip-path="url(#SVGID_80_)" fill="#E88684" d="M67.274,70.121l-0.014,0.008c0.014,0.001,0.028,0.001,0.042,0.003
		L67.274,70.121z"/>
	<path clip-path="url(#SVGID_80_)" fill="#E88684" d="M67.194,70.191c0.004,0.002,0.012,0.004,0.029,0.003
		C67.216,70.191,67.205,70.191,67.194,70.191z"/>
	<path clip-path="url(#SVGID_80_)" fill="#E88684" d="M67.194,70.191c-0.018-0.012,0.042-0.048,0.066-0.062
		c-0.095-0.009-0.177,0.017-0.256,0.063C67.017,70.229,67.13,70.192,67.194,70.191z"/>
	<path clip-path="url(#SVGID_80_)" fill="#E88684" d="M73.798,62.897l0.062,0.042C73.837,62.912,73.817,62.901,73.798,62.897z"/>
	<path clip-path="url(#SVGID_80_)" fill="#E88684" d="M66.256,49.019c0.006-0.007,0.018-0.012,0.021-0.021
		c-0.068-0.043-0.263-0.099-0.517-0.147l-0.032,0.085C65.904,48.958,66.081,48.986,66.256,49.019z"/>
	<path clip-path="url(#SVGID_80_)" fill="#E88684" d="M64.66,48.472l0.05-0.023C64.688,48.455,64.671,48.463,64.66,48.472z"/>
	<path clip-path="url(#SVGID_80_)" fill="#E88684" d="M72.896,65.282c-0.004,0.01-0.007,0.021-0.012,0.03
		C72.894,65.298,72.897,65.288,72.896,65.282z"/>
	<path clip-path="url(#SVGID_80_)" fill="#E88684" d="M73.537,59.692c0-0.018,0.001-0.036,0.001-0.054
		c0-1.055-0.155-2.072-0.443-3.028c-0.009-0.087-0.017-0.179-0.025-0.273c-0.03-0.368-0.073-0.757-0.127-0.89
		c-0.011-0.311-0.287-0.572-0.407-0.91c-0.254-0.511-0.03-0.315-0.113-0.605c-0.146-0.338-0.047,0.119-0.128-0.001
		c-0.042-0.145-0.087-0.289-0.135-0.433c0.149,0.204,0.117,0.06,0.118,0c-0.192-0.324-0.442-0.904-0.652-0.875
		c-0.267-0.446-0.225-0.494-0.369-0.662c0.029,0.077,0.107,0.205,0.082,0.23c-0.083-0.206-0.08-0.059-0.036,0.016
		c-0.132-0.089-0.352-0.438-0.588-0.743c-0.233-0.306-0.478-0.565-0.561-0.507l0.021-0.028c-0.143,0.071-0.138,0.255-0.353,0.188
		l-0.075-0.139l-0.208-0.075c-0.09-0.122-0.012-0.114-0.002-0.129c-0.322-0.146-0.691-0.476-1.061-0.693
		c0.073,0.189,0.14,0.379,0.2,0.568c-0.126-0.128-0.307-0.309-0.477-0.443c-0.169-0.134-0.325-0.222-0.382-0.177l-0.141-0.21
		c-0.279-0.259-0.412-0.275-0.493-0.252c-0.083,0.023-0.122,0.085-0.243,0.002c-0.097-0.085-0.196-0.168-0.297-0.25
		c0.114,0.036,0.227,0.073,0.34,0.113c-0.317-0.186-0.444-0.271-0.701-0.438c0,0.001-0.004,0.001-0.004,0.003
		c0.018,0.011,0.029,0.021,0.029,0.03l-0.05-0.009c-0.06,0.06-0.253,0.061-0.5,0.005c-0.352-0.091-0.638-0.035-1.196-0.242
		l-0.154,0.138c-0.14-0.04-0.281-0.077-0.424-0.111l0.003-0.119c0.213,0.01,0.52,0.017,0.842,0.042
		c0.323,0.024,0.66,0.066,0.931,0.119l0.02-0.052c-0.323-0.067-0.699-0.069-0.913-0.104c-0.089-0.032-0.307-0.153-0.208-0.223
		l-0.164,0.075c-0.55-0.033-0.827-0.021-1.11-0.03c-0.284-0.003-0.574-0.027-1.159-0.018l0.107,0.046
		c-0.224,0.064-0.442,0.136-0.521,0.052c-0.69,0.1-1.402,0.24-1.887,0.263l-0.047,0.168c-0.141,0.044-0.428-0.066-0.422,0.146
		c-0.09,0.062-0.179,0.125-0.267,0.188c-0.189,0.078-0.266,0.204-0.506,0.241c-0.001,0-0.001,0-0.001,0l-0.046,0.006
		c0.002,0.003,0.004,0.006,0.007,0.009c-0.432,0.169,0.06,0.104-0.434,0.298c-0.194,0.002-0.072,0.25-0.299,0.36
		c-0.106-0.01-0.212-0.018-0.32-0.024c-0.224,0.086-0.323,0.187-0.433,0.316c-0.108,0.129-0.227,0.285-0.482,0.506
		c-0.287,0.159-0.517,0.147-0.453-0.119c-0.103,0.346-0.026,0.183-0.252,0.528c-0.094-0.01-0.076-0.052-0.059-0.164
		c-0.313,0.193-0.109,0.206-0.297,0.399c0.047,0.157,0.15,0.377,0.101,0.447l0.099-0.045c-0.13,0.258-0.292,0.507-0.541,0.718
		l-0.048-0.055c-0.06,0.099-0.118,0.198-0.175,0.298l-0.084-0.038c-0.087,0.14-0.172,0.281-0.253,0.424l0.056-0.042
		c-0.055,0.103-0.228,0.439-0.373,0.604l-0.039-0.033c-0.437,0.461-0.482,1.023-0.716,1.696l-0.061-0.126
		c-0.18,0.195,0.121,0.12-0.023,0.377l-0.122-0.029c0.073,0.301-0.136,0.306-0.247,0.463l0.179-0.032
		c-0.042,0.104-0.085,0.208-0.125,0.314c-0.145,0.345-0.255,0.17-0.325,0.092l0.064,0.283l-0.151,0.016
		c0.124,0.222-0.069,0.18-0.041,0.524c-0.059,0.017-0.075-0.072-0.117,0.036c0.035,0.193,0.075,0.384,0.12,0.572
		c-0.016-0.112-0.031-0.225-0.044-0.338l0.202,0.073c0.11,0.354-0.082,0.448-0.046,0.694l-0.046-0.171
		c0.014,0.396-0.073,0.409-0.132,0.629C52.771,59,52.834,58.9,52.854,59.06c0.006,0.117-0.077,0.06-0.104,0.169
		c0.139,0.033,0.204,0.312,0.142,0.564c-0.02-0.003-0.04-0.008-0.052-0.024c0.024,0.064,0.06,0.097,0.029,0.21l-0.157-0.062
		l0.155,0.213c-0.037,0.147,0.09,0.351-0.015,0.339l-0.037-0.08c0.011,0.368,0.04,0.736,0.085,1.104l-0.12,0.036
		c0.182,0.078,0.046,0.613,0.25,0.531c-0.075,0.234,0.275,0.775,0.013,0.723c0.09,0.358,0.23,0.61,0.371,0.877
		c0.143,0.268,0.286,0.549,0.422,0.975c-0.024,0.188,0.077,0.473,0.229,0.766c0.151,0.294,0.352,0.594,0.504,0.836
		c0.35,0.437,0.667,0.767,0.998,1.083c0.332,0.314,0.678,0.614,1.117,0.953c0.161,0.333,0.511,0.579,0.881,0.786
		c0.372,0.209,0.763,0.379,1.041,0.622l0.225-0.013c0.17,0.192,0.447,0.314,0.75,0.429c0.303,0.116,0.63,0.223,0.924,0.409
		c0.171,0,0.257,0.006,0.294,0.013c-0.028-0.014-0.066-0.048-0.06-0.124c0.167,0.105,0.552,0.133,0.494,0.27l-0.05,0.003
		c-0.03,0.069,0.115,0.087,0.29,0.104c0.175,0.017,0.38,0.031,0.475,0.111l-0.089-0.176c0.116,0.029,0.232,0.057,0.349,0.082
		l-0.099,0.017c0.792-0.063,1.336-0.014,1.887,0.015c0.545,0.023,1.102,0.02,1.783-0.28c-0.155,0.209,0.261-0.147,0.317,0.031
		c0.414,0.147,0.651-0.225,0.91-0.378c-0.003-0.009-0.002-0.021,0.009-0.04c0.167-0.048,0.333-0.101,0.497-0.158
		c-0.207,0.339,0.279-0.326,0.084-0.029c0.664-0.17,1.378-0.539,2.048-1.014c0.672-0.474,1.297-1.052,1.869-1.613l-0.091,0.009
		c0.288-0.288,0.55-0.725,0.808-0.913c0.264-0.19,0.266-0.645,0.319-0.748c0.082-0.298,0.343-0.455,0.348-0.405
		c0.142-0.326,0.124-0.71,0.399-1.108c0.125-0.035,0.216-0.371,0.282-0.688c0.069-0.316,0.112-0.615,0.221-0.588l-0.016-0.011
		c0.166-0.282,0.218-0.595,0.254-0.912c0.037-0.317,0.06-0.638,0.171-0.971c0,0,0.015,0.015,0.027,0.041
		c-0.165-0.496-0.363-0.966-0.587-1.406C73.611,59.657,73.574,59.674,73.537,59.692z"/>
	<polygon clip-path="url(#SVGID_80_)" fill="#E88684" points="68.454,50.068 68.476,50.082 68.427,49.956 	"/>
	<path clip-path="url(#SVGID_80_)" fill="#E88684" d="M72.417,53.674c-0.118-0.218-0.138-0.217-0.139-0.175
		C72.324,53.576,72.371,53.638,72.417,53.674z"/>
</g>
<g>
	<defs>
		<rect id="SVGID_87_" x="20.143" y="12.278" width="44.915" height="89.828"/>
	</defs>
	<clipPath id="SVGID_82_">
		<use xlink:href="#SVGID_87_"  overflow="visible"/>
	</clipPath>
	<g clip-path="url(#SVGID_82_)">
		<defs>
			<rect id="SVGID_89_" x="20.297" y="12.278" width="89.829" height="89.829"/>
		</defs>
		<clipPath id="SVGID_84_">
			<use xlink:href="#SVGID_89_"  overflow="visible"/>
		</clipPath>
		<g transform="matrix(1 0 0 1 0 -9.536743e-007)" clip-path="url(#SVGID_84_)">
			
				<image overflow="visible" width="800" height="800" xlink:href="191F0013.png"  transform="matrix(-0.1123 0 0 0.1123 110.1255 12.2778)">
			</image>
		</g>
	</g>
</g>
<g>
	<defs>
		<rect id="SVGID_91_" x="-11" y="-54.96" width="842" height="1558.787"/>
	</defs>
	<clipPath id="SVGID_86_">
		<use xlink:href="#SVGID_91_"  overflow="visible"/>
	</clipPath>
</g>
<g>
	<defs>
		<rect id="SVGID_97_" x="-11" y="-54.96" width="842" height="1558.787"/>
	</defs>
	<clipPath id="SVGID_88_">
		<use xlink:href="#SVGID_97_"  overflow="visible"/>
	</clipPath>
</g>
<g>
	<defs>
		<rect id="SVGID_103_" x="-11" y="-54.96" width="842" height="1558.787"/>
	</defs>
	<clipPath id="SVGID_90_">
		<use xlink:href="#SVGID_103_"  overflow="visible"/>
	</clipPath>
</g>
<g>
	<defs>
		<rect id="SVGID_107_" x="-11" y="-54.96" width="842" height="1558.787"/>
	</defs>
	<clipPath id="SVGID_92_">
		<use xlink:href="#SVGID_107_"  overflow="visible"/>
	</clipPath>
</g>
<g>
	<defs>
		<rect id="SVGID_113_" x="-11" y="-54.96" width="842" height="1558.787"/>
	</defs>
	<clipPath id="SVGID_94_">
		<use xlink:href="#SVGID_113_"  overflow="visible"/>
	</clipPath>
</g>
<g>
	<defs>
		<rect id="SVGID_155_" x="-11" y="-54.96" width="842" height="1558.787"/>
	</defs>
	<clipPath id="SVGID_96_">
		<use xlink:href="#SVGID_155_"  overflow="visible"/>
	</clipPath>
</g>
</svg>
